<?xml version="1.0" encoding="UTF-8" standalone="no"?><svg xmlns="http://www.w3.org/2000/svg" xmlns:xlink="http://www.w3.org/1999/xlink" contentScriptType="application/ecmascript" contentStyleType="text/css" height="561px" preserveAspectRatio="none" style="width:1778px;height:561px;background:#FFFFFF;" version="1.1" viewBox="0 0 1778 561" width="1778px" zoomAndPan="magnify"><defs><filter height="300%" id="f1k98g9dvseabp" width="300%" x="-1" y="-1"><feGaussianBlur result="blurOut" stdDeviation="2.0"/><feColorMatrix in="blurOut" result="blurOut2" type="matrix" values="0 0 0 0 0 0 0 0 0 0 0 0 0 0 0 0 0 0 .4 0"/><feOffset dx="4.0" dy="4.0" in="blurOut2" result="blurOut3"/><feBlend in="SourceGraphic" in2="blurOut3" mode="normal"/></filter></defs><g><!--MD5=[0363e4d56f3fb25261de8acdd2e161a1]
class MultiLingualContent--><rect codeLine="28" fill="#FEFECE" filter="url(#f1k98g9dvseabp)" height="86.4141" id="MultiLingualContent" style="stroke:#A80036;stroke-width:1.5;" width="155" x="224.5" y="84"/><ellipse cx="239.5" cy="100" fill="#ADD1B2" rx="11" ry="11" style="stroke:#A80036;stroke-width:1.0;"/><path d="M242.4688,105.6406 Q241.8906,105.9375 241.25,106.0781 Q240.6094,106.2344 239.9063,106.2344 Q237.4063,106.2344 236.0781,104.5938 Q234.7656,102.9375 234.7656,99.8125 Q234.7656,96.6875 236.0781,95.0313 Q237.4063,93.375 239.9063,93.375 Q240.6094,93.375 241.25,93.5313 Q241.9063,93.6875 242.4688,93.9844 L242.4688,96.7031 Q241.8438,96.125 241.25,95.8594 Q240.6563,95.5781 240.0313,95.5781 Q238.6875,95.5781 238,96.6563 Q237.3125,97.7188 237.3125,99.8125 Q237.3125,101.9063 238,102.9844 Q238.6875,104.0469 240.0313,104.0469 Q240.6563,104.0469 241.25,103.7813 Q241.8438,103.5 242.4688,102.9219 L242.4688,105.6406 Z " fill="#000000"/><text fill="#000000" font-family="sans-serif" font-size="12" lengthAdjust="spacing" textLength="123" x="253.5" y="104.1543">MultiLingualContent</text><line style="stroke:#A80036;stroke-width:1.5;" x1="225.5" x2="378.5" y1="116" y2="116"/><text fill="#000000" font-family="sans-serif" font-size="11" lengthAdjust="spacing" textLength="132" x="230.5" y="130.2104">LanguageTag language</text><text fill="#000000" font-family="sans-serif" font-size="11" lengthAdjust="spacing" textLength="80" x="230.5" y="143.0151">String content</text><text fill="#000000" font-family="sans-serif" font-size="11" lengthAdjust="spacing" textLength="84" x="230.5" y="155.8198">Integer priority</text><line style="stroke:#A80036;stroke-width:1.5;" x1="225.5" x2="378.5" y1="162.4141" y2="162.4141"/><!--MD5=[453a227509191e5b5ed2bc3fd5c8226a]
class OrganisationUnit--><rect codeLine="212" fill="#FEFECE" filter="url(#f1k98g9dvseabp)" height="150.4375" id="OrganisationUnit" style="stroke:#A80036;stroke-width:1.5;" width="230" x="7" y="352"/><ellipse cx="65.25" cy="368" fill="#ADD1B2" rx="11" ry="11" style="stroke:#A80036;stroke-width:1.0;"/><path d="M68.2188,373.6406 Q67.6406,373.9375 67,374.0781 Q66.3594,374.2344 65.6563,374.2344 Q63.1563,374.2344 61.8281,372.5938 Q60.5156,370.9375 60.5156,367.8125 Q60.5156,364.6875 61.8281,363.0313 Q63.1563,361.375 65.6563,361.375 Q66.3594,361.375 67,361.5313 Q67.6563,361.6875 68.2188,361.9844 L68.2188,364.7031 Q67.5938,364.125 67,363.8594 Q66.4063,363.5781 65.7813,363.5781 Q64.4375,363.5781 63.75,364.6563 Q63.0625,365.7188 63.0625,367.8125 Q63.0625,369.9063 63.75,370.9844 Q64.4375,372.0469 65.7813,372.0469 Q66.4063,372.0469 67,371.7813 Q67.5938,371.5 68.2188,370.9219 L68.2188,373.6406 Z " fill="#000000"/><text fill="#000000" font-family="sans-serif" font-size="12" lengthAdjust="spacing" textLength="105" x="85.75" y="372.1543">OrganisationUnit</text><line style="stroke:#A80036;stroke-width:1.5;" x1="8" x2="236" y1="384" y2="384"/><rect fill="none" height="6" style="stroke:#C82930;stroke-width:1.0;" width="6" x="15" y="392"/><text fill="#000000" font-family="sans-serif" font-size="11" lengthAdjust="spacing" textLength="183" x="27" y="398.2104">Set&lt;MultiLingualContent&gt; name</text><rect fill="none" height="6" style="stroke:#C82930;stroke-width:1.0;" width="6" x="15" y="404.8047"/><text fill="#000000" font-family="sans-serif" font-size="11" lengthAdjust="spacing" textLength="140" x="27" y="411.0151">String nameAbbreviation</text><rect fill="none" height="6" style="stroke:#C82930;stroke-width:1.0;" width="6" x="15" y="417.6094"/><text fill="#000000" font-family="sans-serif" font-size="11" lengthAdjust="spacing" textLength="198" x="27" y="423.8198">Set&lt;MultiLingualContent&gt; keyword</text><rect fill="none" height="6" style="stroke:#C82930;stroke-width:1.0;" width="6" x="15" y="430.4141"/><text fill="#000000" font-family="sans-serif" font-size="11" lengthAdjust="spacing" textLength="204" x="27" y="436.6245">Set&lt;ResearchArea&gt; researchAreas</text><rect fill="none" height="6" style="stroke:#C82930;stroke-width:1.0;" width="6" x="15" y="443.2188"/><text fill="#000000" font-family="sans-serif" font-size="11" lengthAdjust="spacing" textLength="118" x="27" y="449.4292">GeoLocation location</text><rect fill="none" height="6" style="stroke:#C82930;stroke-width:1.0;" width="6" x="15" y="456.0234"/><text fill="#000000" font-family="sans-serif" font-size="11" lengthAdjust="spacing" textLength="170" x="27" y="462.2339">ApproveStatus approveStatus</text><rect fill="none" height="6" style="stroke:#C82930;stroke-width:1.0;" width="6" x="15" y="468.8281"/><text fill="#000000" font-family="sans-serif" font-size="11" lengthAdjust="spacing" textLength="71" x="27" y="475.0386">Integer oldId</text><rect fill="none" height="6" style="stroke:#C82930;stroke-width:1.0;" width="6" x="15" y="481.6328"/><text fill="#000000" font-family="sans-serif" font-size="11" lengthAdjust="spacing" textLength="100" x="27" y="487.8433">String scopusAfid</text><line style="stroke:#A80036;stroke-width:1.5;" x1="8" x2="236" y1="494.4375" y2="494.4375"/><!--MD5=[59b530d44ae785dc18db921986a9c15c]
class Document--><rect codeLine="321" fill="#FEFECE" filter="url(#f1k98g9dvseabp)" height="240.0703" id="Document" style="stroke:#A80036;stroke-width:1.5;" width="302" x="1225" y="7"/><ellipse cx="1339.75" cy="23" fill="#ADD1B2" rx="11" ry="11" style="stroke:#A80036;stroke-width:1.0;"/><path d="M1342.7188,28.6406 Q1342.1406,28.9375 1341.5,29.0781 Q1340.8594,29.2344 1340.1563,29.2344 Q1337.6563,29.2344 1336.3281,27.5938 Q1335.0156,25.9375 1335.0156,22.8125 Q1335.0156,19.6875 1336.3281,18.0313 Q1337.6563,16.375 1340.1563,16.375 Q1340.8594,16.375 1341.5,16.5313 Q1342.1563,16.6875 1342.7188,16.9844 L1342.7188,19.7031 Q1342.0938,19.125 1341.5,18.8594 Q1340.9063,18.5781 1340.2813,18.5781 Q1338.9375,18.5781 1338.25,19.6563 Q1337.5625,20.7188 1337.5625,22.8125 Q1337.5625,24.9063 1338.25,25.9844 Q1338.9375,27.0469 1340.2813,27.0469 Q1340.9063,27.0469 1341.5,26.7813 Q1342.0938,26.5 1342.7188,25.9219 L1342.7188,28.6406 Z " fill="#000000"/><text fill="#000000" font-family="sans-serif" font-size="12" lengthAdjust="spacing" textLength="64" x="1360.25" y="27.1543">Document</text><line style="stroke:#A80036;stroke-width:1.5;" x1="1226" x2="1526" y1="39" y2="39"/><rect fill="none" height="6" style="stroke:#C82930;stroke-width:1.0;" width="6" x="1233" y="47"/><text fill="#000000" font-family="sans-serif" font-size="11" lengthAdjust="spacing" textLength="172" x="1245" y="53.2104">Set&lt;MultiLingualContent&gt; title</text><rect fill="none" height="6" style="stroke:#C82930;stroke-width:1.0;" width="6" x="1233" y="59.8047"/><text fill="#000000" font-family="sans-serif" font-size="11" lengthAdjust="spacing" textLength="196" x="1245" y="66.0151">Set&lt;MultiLingualContent&gt; subTitle</text><rect fill="none" height="6" style="stroke:#C82930;stroke-width:1.0;" width="6" x="1233" y="72.6094"/><text fill="#000000" font-family="sans-serif" font-size="11" lengthAdjust="spacing" textLength="214" x="1245" y="78.8198">Set&lt;MultiLingualContent&gt; description</text><rect fill="none" height="6" style="stroke:#C82930;stroke-width:1.0;" width="6" x="1233" y="85.4141"/><text fill="#000000" font-family="sans-serif" font-size="11" lengthAdjust="spacing" textLength="176" x="1245" y="91.6245">Set&lt;MultiLingualContent&gt; note</text><rect fill="none" height="6" style="stroke:#C82930;stroke-width:1.0;" width="6" x="1233" y="98.2188"/><text fill="#000000" font-family="sans-serif" font-size="11" lengthAdjust="spacing" textLength="276" x="1245" y="104.4292">Set&lt;PersonDocumentContribution&gt; contributors</text><rect fill="none" height="6" style="stroke:#C82930;stroke-width:1.0;" width="6" x="1233" y="111.0234"/><text fill="#000000" font-family="sans-serif" font-size="11" lengthAdjust="spacing" textLength="97" x="1245" y="117.2339">Set&lt;String&gt; uris</text><rect fill="none" height="6" style="stroke:#C82930;stroke-width:1.0;" width="6" x="1233" y="123.8281"/><text fill="#000000" font-family="sans-serif" font-size="11" lengthAdjust="spacing" textLength="120" x="1245" y="130.0386">String documentDate</text><rect fill="none" height="6" style="stroke:#C82930;stroke-width:1.0;" width="6" x="1233" y="136.6328"/><text fill="#000000" font-family="sans-serif" font-size="11" lengthAdjust="spacing" textLength="166" x="1245" y="142.8433">Set&lt;DocumentFile&gt; fileItems</text><rect fill="none" height="6" style="stroke:#C82930;stroke-width:1.0;" width="6" x="1233" y="149.4375"/><text fill="#000000" font-family="sans-serif" font-size="11" lengthAdjust="spacing" textLength="147" x="1245" y="155.6479">Set&lt;DocumentFile&gt; proof</text><rect fill="none" height="6" style="stroke:#C82930;stroke-width:1.0;" width="6" x="1233" y="162.2422"/><text fill="#000000" font-family="sans-serif" font-size="11" lengthAdjust="spacing" textLength="205" x="1245" y="168.4526">Set&lt;MultiLingualContent&gt; keywords</text><rect fill="none" height="6" style="stroke:#C82930;stroke-width:1.0;" width="6" x="1233" y="175.0469"/><text fill="#000000" font-family="sans-serif" font-size="11" lengthAdjust="spacing" textLength="170" x="1245" y="181.2573">ApproveStatus approveStatus</text><rect fill="none" height="6" style="stroke:#C82930;stroke-width:1.0;" width="6" x="1233" y="187.8516"/><text fill="#000000" font-family="sans-serif" font-size="11" lengthAdjust="spacing" textLength="63" x="1245" y="194.062">String note</text><rect fill="none" height="6" style="stroke:#C82930;stroke-width:1.0;" width="6" x="1233" y="200.6563"/><text fill="#000000" font-family="sans-serif" font-size="11" lengthAdjust="spacing" textLength="55" x="1245" y="206.8667">String doi</text><rect fill="none" height="6" style="stroke:#C82930;stroke-width:1.0;" width="6" x="1233" y="213.4609"/><text fill="#000000" font-family="sans-serif" font-size="11" lengthAdjust="spacing" textLength="89" x="1245" y="219.6714">String scopusId</text><rect fill="none" height="6" style="stroke:#C82930;stroke-width:1.0;" width="6" x="1233" y="226.2656"/><text fill="#000000" font-family="sans-serif" font-size="11" lengthAdjust="spacing" textLength="71" x="1245" y="232.4761">Integer oldId</text><line style="stroke:#A80036;stroke-width:1.5;" x1="1226" x2="1526" y1="239.0703" y2="239.0703"/><!--MD5=[ac13618b1a974308c1f12eb6c57723dc]
class Event--><rect codeLine="362" fill="#FEFECE" filter="url(#f1k98g9dvseabp)" height="188.8516" id="Event" style="stroke:#A80036;stroke-width:1.5;" width="279" x="1236.5" y="332.5"/><ellipse cx="1354.25" cy="348.5" fill="#ADD1B2" rx="11" ry="11" style="stroke:#A80036;stroke-width:1.0;"/><path d="M1357.2188,354.1406 Q1356.6406,354.4375 1356,354.5781 Q1355.3594,354.7344 1354.6563,354.7344 Q1352.1563,354.7344 1350.8281,353.0938 Q1349.5156,351.4375 1349.5156,348.3125 Q1349.5156,345.1875 1350.8281,343.5313 Q1352.1563,341.875 1354.6563,341.875 Q1355.3594,341.875 1356,342.0313 Q1356.6563,342.1875 1357.2188,342.4844 L1357.2188,345.2031 Q1356.5938,344.625 1356,344.3594 Q1355.4063,344.0781 1354.7813,344.0781 Q1353.4375,344.0781 1352.75,345.1563 Q1352.0625,346.2188 1352.0625,348.3125 Q1352.0625,350.4063 1352.75,351.4844 Q1353.4375,352.5469 1354.7813,352.5469 Q1355.4063,352.5469 1356,352.2813 Q1356.5938,352 1357.2188,351.4219 L1357.2188,354.1406 Z " fill="#000000"/><text fill="#000000" font-family="sans-serif" font-size="12" lengthAdjust="spacing" textLength="35" x="1374.75" y="352.6543">Event</text><line style="stroke:#A80036;stroke-width:1.5;" x1="1237.5" x2="1514.5" y1="364.5" y2="364.5"/><rect fill="none" height="6" style="stroke:#C82930;stroke-width:1.0;" width="6" x="1244.5" y="372.5"/><text fill="#000000" font-family="sans-serif" font-size="11" lengthAdjust="spacing" textLength="183" x="1256.5" y="378.7104">Set&lt;MultiLingualContent&gt; name</text><rect fill="none" height="6" style="stroke:#C82930;stroke-width:1.0;" width="6" x="1244.5" y="385.3047"/><text fill="#000000" font-family="sans-serif" font-size="11" lengthAdjust="spacing" textLength="253" x="1256.5" y="391.5151">Set&lt;MultiLingualContent&gt; nameAbbreviation</text><rect fill="none" height="6" style="stroke:#C82930;stroke-width:1.0;" width="6" x="1244.5" y="398.1094"/><text fill="#000000" font-family="sans-serif" font-size="11" lengthAdjust="spacing" textLength="214" x="1256.5" y="404.3198">Set&lt;MultiLingualContent&gt; description</text><rect fill="none" height="6" style="stroke:#C82930;stroke-width:1.0;" width="6" x="1244.5" y="410.9141"/><text fill="#000000" font-family="sans-serif" font-size="11" lengthAdjust="spacing" textLength="205" x="1256.5" y="417.1245">Set&lt;MultiLingualContent&gt; keywords</text><rect fill="none" height="6" style="stroke:#C82930;stroke-width:1.0;" width="6" x="1244.5" y="423.7188"/><text fill="#000000" font-family="sans-serif" font-size="11" lengthAdjust="spacing" textLength="113" x="1256.5" y="429.9292">Boolean serialEvent</text><rect fill="none" height="6" style="stroke:#C82930;stroke-width:1.0;" width="6" x="1244.5" y="436.5234"/><text fill="#000000" font-family="sans-serif" font-size="11" lengthAdjust="spacing" textLength="113" x="1256.5" y="442.7339">LocalDate dateFrom</text><rect fill="none" height="6" style="stroke:#C82930;stroke-width:1.0;" width="6" x="1244.5" y="449.3281"/><text fill="#000000" font-family="sans-serif" font-size="11" lengthAdjust="spacing" textLength="98" x="1256.5" y="455.5386">LocalDate dateTo</text><rect fill="none" height="6" style="stroke:#C82930;stroke-width:1.0;" width="6" x="1244.5" y="462.1328"/><text fill="#000000" font-family="sans-serif" font-size="11" lengthAdjust="spacing" textLength="180" x="1256.5" y="468.3433">Set&lt;MultiLingualContent&gt; state</text><rect fill="none" height="6" style="stroke:#C82930;stroke-width:1.0;" width="6" x="1244.5" y="474.9375"/><text fill="#000000" font-family="sans-serif" font-size="11" lengthAdjust="spacing" textLength="181" x="1256.5" y="481.1479">Set&lt;MultiLingualContent&gt; place</text><rect fill="none" height="6" style="stroke:#C82930;stroke-width:1.0;" width="6" x="1244.5" y="487.7422"/><text fill="#000000" font-family="sans-serif" font-size="11" lengthAdjust="spacing" textLength="250" x="1256.5" y="493.9526">Set&lt;PersonEventContribution&gt; contributors</text><rect fill="none" height="6" style="stroke:#C82930;stroke-width:1.0;" width="6" x="1244.5" y="500.5469"/><text fill="#000000" font-family="sans-serif" font-size="11" lengthAdjust="spacing" textLength="71" x="1256.5" y="506.7573">Integer oldId</text><line style="stroke:#A80036;stroke-width:1.5;" x1="1237.5" x2="1514.5" y1="513.3516" y2="513.3516"/><!--MD5=[a8629a4ee64780b1db10893afabddcba]
class PersonDocumentContribution--><rect codeLine="289" fill="#FEFECE" filter="url(#f1k98g9dvseabp)" height="86.4141" id="PersonDocumentContribution" style="stroke:#A80036;stroke-width:1.5;" width="277" x="924.5" y="384"/><ellipse cx="966.5" cy="400" fill="#ADD1B2" rx="11" ry="11" style="stroke:#A80036;stroke-width:1.0;"/><path d="M969.4688,405.6406 Q968.8906,405.9375 968.25,406.0781 Q967.6094,406.2344 966.9063,406.2344 Q964.4063,406.2344 963.0781,404.5938 Q961.7656,402.9375 961.7656,399.8125 Q961.7656,396.6875 963.0781,395.0313 Q964.4063,393.375 966.9063,393.375 Q967.6094,393.375 968.25,393.5313 Q968.9063,393.6875 969.4688,393.9844 L969.4688,396.7031 Q968.8438,396.125 968.25,395.8594 Q967.6563,395.5781 967.0313,395.5781 Q965.6875,395.5781 965,396.6563 Q964.3125,397.7188 964.3125,399.8125 Q964.3125,401.9063 965,402.9844 Q965.6875,404.0469 967.0313,404.0469 Q967.6563,404.0469 968.25,403.7813 Q968.8438,403.5 969.4688,402.9219 L969.4688,405.6406 Z " fill="#000000"/><text fill="#000000" font-family="sans-serif" font-size="12" lengthAdjust="spacing" textLength="185" x="986.5" y="404.1543">PersonDocumentContribution</text><line style="stroke:#A80036;stroke-width:1.5;" x1="925.5" x2="1200.5" y1="416" y2="416"/><rect fill="none" height="6" style="stroke:#C82930;stroke-width:1.0;" width="6" x="932.5" y="424"/><text fill="#000000" font-family="sans-serif" font-size="11" lengthAdjust="spacing" textLength="251" x="944.5" y="430.2104">DocumentContributionType contributionType</text><rect fill="none" height="6" style="stroke:#C82930;stroke-width:1.0;" width="6" x="932.5" y="436.8047"/><text fill="#000000" font-family="sans-serif" font-size="11" lengthAdjust="spacing" textLength="141" x="944.5" y="443.0151">boolean mainContributor</text><rect fill="none" height="6" style="stroke:#C82930;stroke-width:1.0;" width="6" x="932.5" y="449.6094"/><text fill="#000000" font-family="sans-serif" font-size="11" lengthAdjust="spacing" textLength="195" x="944.5" y="455.8198">boolean correspondingContributor</text><line style="stroke:#A80036;stroke-width:1.5;" x1="925.5" x2="1200.5" y1="462.4141" y2="462.4141"/><!--MD5=[077feb261d5045b0f4bde0f21e93d5af]
class JournalPublication--><rect codeLine="422" fill="#FEFECE" filter="url(#f1k98g9dvseabp)" height="124.8281" id="JournalPublication" style="stroke:#A80036;stroke-width:1.5;" width="162" x="1551" y="364.5"/><ellipse cx="1574.1" cy="380.5" fill="#ADD1B2" rx="11" ry="11" style="stroke:#A80036;stroke-width:1.0;"/><path d="M1577.0688,386.1406 Q1576.4906,386.4375 1575.85,386.5781 Q1575.2094,386.7344 1574.5063,386.7344 Q1572.0063,386.7344 1570.6781,385.0938 Q1569.3656,383.4375 1569.3656,380.3125 Q1569.3656,377.1875 1570.6781,375.5313 Q1572.0063,373.875 1574.5063,373.875 Q1575.2094,373.875 1575.85,374.0313 Q1576.5063,374.1875 1577.0688,374.4844 L1577.0688,377.2031 Q1576.4438,376.625 1575.85,376.3594 Q1575.2563,376.0781 1574.6313,376.0781 Q1573.2875,376.0781 1572.6,377.1563 Q1571.9125,378.2188 1571.9125,380.3125 Q1571.9125,382.4063 1572.6,383.4844 Q1573.2875,384.5469 1574.6313,384.5469 Q1575.2563,384.5469 1575.85,384.2813 Q1576.4438,384 1577.0688,383.4219 L1577.0688,386.1406 Z " fill="#000000"/><text fill="#000000" font-family="sans-serif" font-size="12" lengthAdjust="spacing" textLength="112" x="1589.9" y="384.6543">JournalPublication</text><line style="stroke:#A80036;stroke-width:1.5;" x1="1552" x2="1712" y1="396.5" y2="396.5"/><rect fill="none" height="6" style="stroke:#C82930;stroke-width:1.0;" width="6" x="1559" y="404.5"/><text fill="#000000" font-family="sans-serif" font-size="11" lengthAdjust="spacing" textLength="97" x="1571" y="410.7104">String startPage;</text><rect fill="none" height="6" style="stroke:#C82930;stroke-width:1.0;" width="6" x="1559" y="417.3047"/><text fill="#000000" font-family="sans-serif" font-size="11" lengthAdjust="spacing" textLength="91" x="1571" y="423.5151">String endPage;</text><rect fill="none" height="6" style="stroke:#C82930;stroke-width:1.0;" width="6" x="1559" y="430.1094"/><text fill="#000000" font-family="sans-serif" font-size="11" lengthAdjust="spacing" textLength="136" x="1571" y="436.3198">Integer numberOfPages</text><rect fill="none" height="6" style="stroke:#C82930;stroke-width:1.0;" width="6" x="1559" y="442.9141"/><text fill="#000000" font-family="sans-serif" font-size="11" lengthAdjust="spacing" textLength="118" x="1571" y="449.1245">String articleNumber</text><rect fill="none" height="6" style="stroke:#C82930;stroke-width:1.0;" width="6" x="1559" y="455.7188"/><text fill="#000000" font-family="sans-serif" font-size="11" lengthAdjust="spacing" textLength="79" x="1571" y="461.9292">String volume</text><rect fill="none" height="6" style="stroke:#C82930;stroke-width:1.0;" width="6" x="1559" y="468.5234"/><text fill="#000000" font-family="sans-serif" font-size="11" lengthAdjust="spacing" textLength="69" x="1571" y="474.7339">String issue</text><line style="stroke:#A80036;stroke-width:1.5;" x1="1552" x2="1712" y1="481.3281" y2="481.3281"/><!--MD5=[f966dd9013cc04994824b91e9eb709ff]
class DocumentContributionType--><rect codeLine="248" fill="#FEFECE" filter="url(#f1k98g9dvseabp)" height="99.2188" id="DocumentContributionType" style="stroke:#A80036;stroke-width:1.5;" width="202" x="1562" y="77.5"/><ellipse cx="1577" cy="93.5" fill="#EB937F" rx="11" ry="11" style="stroke:#A80036;stroke-width:1.0;"/><path d="M1581.1094,99.5 L1573.3906,99.5 L1573.3906,87.1094 L1581.1094,87.1094 L1581.1094,89.2656 L1575.8438,89.2656 L1575.8438,91.9375 L1580.6094,91.9375 L1580.6094,94.0938 L1575.8438,94.0938 L1575.8438,97.3438 L1581.1094,97.3438 L1581.1094,99.5 Z " fill="#000000"/><text fill="#000000" font-family="sans-serif" font-size="12" lengthAdjust="spacing" textLength="170" x="1591" y="97.6543">DocumentContributionType</text><line style="stroke:#A80036;stroke-width:1.5;" x1="1563" x2="1763" y1="109.5" y2="109.5"/><text fill="#000000" font-family="sans-serif" font-size="11" lengthAdjust="spacing" textLength="46" x="1568" y="123.7104">AUTHOR</text><text fill="#000000" font-family="sans-serif" font-size="11" lengthAdjust="spacing" textLength="41" x="1568" y="136.5151">EDITOR</text><text fill="#000000" font-family="sans-serif" font-size="11" lengthAdjust="spacing" textLength="54" x="1568" y="149.3198">REVIEWER</text><text fill="#000000" font-family="sans-serif" font-size="11" lengthAdjust="spacing" textLength="49" x="1568" y="162.1245">ADVISOR</text><line style="stroke:#A80036;stroke-width:1.5;" x1="1563" x2="1763" y1="168.7188" y2="168.7188"/><!--MD5=[fbf67780fb5d0d02d7f1dbe96dbc72a0]
class PersonContribution--><rect codeLine="264" fill="#FEFECE" filter="url(#f1k98g9dvseabp)" height="124.8281" id="PersonContribution" style="stroke:#A80036;stroke-width:1.5;" width="308" x="415" y="64.5"/><ellipse cx="504.25" cy="80.5" fill="#ADD1B2" rx="11" ry="11" style="stroke:#A80036;stroke-width:1.0;"/><path d="M507.2188,86.1406 Q506.6406,86.4375 506,86.5781 Q505.3594,86.7344 504.6563,86.7344 Q502.1563,86.7344 500.8281,85.0938 Q499.5156,83.4375 499.5156,80.3125 Q499.5156,77.1875 500.8281,75.5313 Q502.1563,73.875 504.6563,73.875 Q505.3594,73.875 506,74.0313 Q506.6563,74.1875 507.2188,74.4844 L507.2188,77.2031 Q506.5938,76.625 506,76.3594 Q505.4063,76.0781 504.7813,76.0781 Q503.4375,76.0781 502.75,77.1563 Q502.0625,78.2188 502.0625,80.3125 Q502.0625,82.4063 502.75,83.4844 Q503.4375,84.5469 504.7813,84.5469 Q505.4063,84.5469 506,84.2813 Q506.5938,84 507.2188,83.4219 L507.2188,86.1406 Z " fill="#000000"/><text fill="#000000" font-family="sans-serif" font-size="12" lengthAdjust="spacing" textLength="121" x="524.75" y="84.6543">PersonContribution</text><line style="stroke:#A80036;stroke-width:1.5;" x1="416" x2="722" y1="96.5" y2="96.5"/><rect fill="none" height="6" style="stroke:#C82930;stroke-width:1.0;" width="6" x="423" y="104.5"/><text fill="#000000" font-family="sans-serif" font-size="11" lengthAdjust="spacing" textLength="84" x="435" y="110.7104">Person person</text><rect fill="none" height="6" style="stroke:#C82930;stroke-width:1.0;" width="6" x="423" y="117.3047"/><text fill="#000000" font-family="sans-serif" font-size="11" lengthAdjust="spacing" textLength="282" x="435" y="123.5151">Set&lt;MultiLingualContent&gt; contributionDescription</text><rect fill="none" height="6" style="stroke:#C82930;stroke-width:1.0;" width="6" x="423" y="130.1094"/><text fill="#000000" font-family="sans-serif" font-size="11" lengthAdjust="spacing" textLength="226" x="435" y="136.3198">AffiliationStatement affiliationStatement</text><rect fill="none" height="6" style="stroke:#C82930;stroke-width:1.0;" width="6" x="423" y="142.9141"/><text fill="#000000" font-family="sans-serif" font-size="11" lengthAdjust="spacing" textLength="199" x="435" y="149.1245">Set&lt;OrganisationUnit&gt; institutions</text><rect fill="none" height="6" style="stroke:#C82930;stroke-width:1.0;" width="6" x="423" y="155.7188"/><text fill="#000000" font-family="sans-serif" font-size="11" lengthAdjust="spacing" textLength="120" x="435" y="161.9292">Integer orderNumber</text><rect fill="none" height="6" style="stroke:#C82930;stroke-width:1.0;" width="6" x="423" y="168.5234"/><text fill="#000000" font-family="sans-serif" font-size="11" lengthAdjust="spacing" textLength="170" x="435" y="174.7339">ApproveStatus approveStatus</text><line style="stroke:#A80036;stroke-width:1.5;" x1="416" x2="722" y1="181.3281" y2="181.3281"/><!--MD5=[09ce52be0ee7de43c61b6e2d59bf108b]
class Person--><rect codeLine="95" fill="#FEFECE" filter="url(#f1k98g9dvseabp)" height="240.0703" id="Person" style="stroke:#A80036;stroke-width:1.5;" width="268" x="272" y="307"/><ellipse cx="379.75" cy="323" fill="#ADD1B2" rx="11" ry="11" style="stroke:#A80036;stroke-width:1.0;"/><path d="M382.7188,328.6406 Q382.1406,328.9375 381.5,329.0781 Q380.8594,329.2344 380.1563,329.2344 Q377.6563,329.2344 376.3281,327.5938 Q375.0156,325.9375 375.0156,322.8125 Q375.0156,319.6875 376.3281,318.0313 Q377.6563,316.375 380.1563,316.375 Q380.8594,316.375 381.5,316.5313 Q382.1563,316.6875 382.7188,316.9844 L382.7188,319.7031 Q382.0938,319.125 381.5,318.8594 Q380.9063,318.5781 380.2813,318.5781 Q378.9375,318.5781 378.25,319.6563 Q377.5625,320.7188 377.5625,322.8125 Q377.5625,324.9063 378.25,325.9844 Q378.9375,327.0469 380.2813,327.0469 Q380.9063,327.0469 381.5,326.7813 Q382.0938,326.5 382.7188,325.9219 L382.7188,328.6406 Z " fill="#000000"/><text fill="#000000" font-family="sans-serif" font-size="12" lengthAdjust="spacing" textLength="44" x="400.25" y="327.1543">Person</text><line style="stroke:#A80036;stroke-width:1.5;" x1="273" x2="539" y1="339" y2="339"/><rect fill="none" height="6" style="stroke:#C82930;stroke-width:1.0;" width="6" x="280" y="347"/><text fill="#000000" font-family="sans-serif" font-size="11" lengthAdjust="spacing" textLength="109" x="292" y="353.2104">PersonName name</text><rect fill="none" height="6" style="stroke:#C82930;stroke-width:1.0;" width="6" x="280" y="359.8047"/><text fill="#000000" font-family="sans-serif" font-size="11" lengthAdjust="spacing" textLength="184" x="292" y="366.0151">Set&lt;PersonName&gt; otherNames</text><rect fill="none" height="6" style="stroke:#C82930;stroke-width:1.0;" width="6" x="280" y="372.6094"/><text fill="#000000" font-family="sans-serif" font-size="11" lengthAdjust="spacing" textLength="184" x="292" y="378.8198">Set&lt;Involvement&gt; involvements</text><rect fill="none" height="6" style="stroke:#C82930;stroke-width:1.0;" width="6" x="280" y="385.4141"/><text fill="#000000" font-family="sans-serif" font-size="11" lengthAdjust="spacing" textLength="242" x="292" y="391.6245">Set&lt;ExpertiseOrSkill&gt; expertisesAndSkills</text><rect fill="none" height="6" style="stroke:#C82930;stroke-width:1.0;" width="6" x="280" y="398.2188"/><text fill="#000000" font-family="sans-serif" font-size="11" lengthAdjust="spacing" textLength="102" x="292" y="404.4292">Set&lt;Prize&gt; prizes</text><rect fill="none" height="6" style="stroke:#C82930;stroke-width:1.0;" width="6" x="280" y="411.0234"/><text fill="#000000" font-family="sans-serif" font-size="11" lengthAdjust="spacing" textLength="207" x="292" y="417.2339">Set&lt;MultiLingualContent&gt; biography</text><rect fill="none" height="6" style="stroke:#C82930;stroke-width:1.0;" width="6" x="280" y="423.8281"/><text fill="#000000" font-family="sans-serif" font-size="11" lengthAdjust="spacing" textLength="198" x="292" y="430.0386">Set&lt;MultiLingualContent&gt; keyword</text><rect fill="none" height="6" style="stroke:#C82930;stroke-width:1.0;" width="6" x="280" y="436.6328"/><text fill="#000000" font-family="sans-serif" font-size="11" lengthAdjust="spacing" textLength="69" x="292" y="442.8433">String apvnt</text><rect fill="none" height="6" style="stroke:#C82930;stroke-width:1.0;" width="6" x="280" y="449.4375"/><text fill="#000000" font-family="sans-serif" font-size="11" lengthAdjust="spacing" textLength="66" x="292" y="455.6479">String mnid</text><rect fill="none" height="6" style="stroke:#C82930;stroke-width:1.0;" width="6" x="280" y="462.2422"/><text fill="#000000" font-family="sans-serif" font-size="11" lengthAdjust="spacing" textLength="66" x="292" y="468.4526">String orcid</text><rect fill="none" height="6" style="stroke:#C82930;stroke-width:1.0;" width="6" x="280" y="475.0469"/><text fill="#000000" font-family="sans-serif" font-size="11" lengthAdjust="spacing" textLength="126" x="292" y="481.2573">String scopusAuthorId</text><rect fill="none" height="6" style="stroke:#C82930;stroke-width:1.0;" width="6" x="280" y="487.8516"/><text fill="#000000" font-family="sans-serif" font-size="11" lengthAdjust="spacing" textLength="71" x="292" y="494.062">Integer oldId</text><rect fill="none" height="6" style="stroke:#C82930;stroke-width:1.0;" width="6" x="280" y="500.6563"/><text fill="#000000" font-family="sans-serif" font-size="11" lengthAdjust="spacing" textLength="204" x="292" y="506.8667">Set&lt;ResearchArea&gt; researchAreas</text><rect fill="none" height="6" style="stroke:#C82930;stroke-width:1.0;" width="6" x="280" y="513.4609"/><text fill="#000000" font-family="sans-serif" font-size="11" lengthAdjust="spacing" textLength="170" x="292" y="519.6714">ApproveStatus approveStatus</text><line style="stroke:#A80036;stroke-width:1.5;" x1="273" x2="539" y1="526.2656" y2="526.2656"/><ellipse cx="283" cy="537.2656" fill="#84BE84" rx="3" ry="3" style="stroke:#038048;stroke-width:1.0;"/><text fill="#000000" font-family="sans-serif" font-size="11" lengthAdjust="spacing" textLength="78" x="292" y="540.4761">String name()</text><!--MD5=[b793bcee6c3bcc18e51e7a40726c5e79]
class AffiliationStatement--><rect codeLine="280" fill="#FEFECE" filter="url(#f1k98g9dvseabp)" height="99.2188" id="AffiliationStatement" style="stroke:#A80036;stroke-width:1.5;" width="314" x="575" y="377.5"/><ellipse cx="666.25" cy="393.5" fill="#ADD1B2" rx="11" ry="11" style="stroke:#A80036;stroke-width:1.0;"/><path d="M669.2188,399.1406 Q668.6406,399.4375 668,399.5781 Q667.3594,399.7344 666.6563,399.7344 Q664.1563,399.7344 662.8281,398.0938 Q661.5156,396.4375 661.5156,393.3125 Q661.5156,390.1875 662.8281,388.5313 Q664.1563,386.875 666.6563,386.875 Q667.3594,386.875 668,387.0313 Q668.6563,387.1875 669.2188,387.4844 L669.2188,390.2031 Q668.5938,389.625 668,389.3594 Q667.4063,389.0781 666.7813,389.0781 Q665.4375,389.0781 664.75,390.1563 Q664.0625,391.2188 664.0625,393.3125 Q664.0625,395.4063 664.75,396.4844 Q665.4375,397.5469 666.7813,397.5469 Q667.4063,397.5469 668,397.2813 Q668.5938,397 669.2188,396.4219 L669.2188,399.1406 Z " fill="#000000"/><text fill="#000000" font-family="sans-serif" font-size="12" lengthAdjust="spacing" textLength="123" x="686.75" y="397.6543">AffiliationStatement</text><line style="stroke:#A80036;stroke-width:1.5;" x1="576" x2="888" y1="409.5" y2="409.5"/><text fill="#000000" font-family="sans-serif" font-size="11" lengthAdjust="spacing" textLength="302" x="581" y="423.7104">Set&lt;MultiLingualContent&gt; displayAffiliationStatement</text><text fill="#000000" font-family="sans-serif" font-size="11" lengthAdjust="spacing" textLength="190" x="581" y="436.5151">PersonName displayPersonName</text><text fill="#000000" font-family="sans-serif" font-size="11" lengthAdjust="spacing" textLength="133" x="581" y="449.3198">PostalAddress address</text><text fill="#000000" font-family="sans-serif" font-size="11" lengthAdjust="spacing" textLength="88" x="581" y="462.1245">Contact contact</text><line style="stroke:#A80036;stroke-width:1.5;" x1="576" x2="888" y1="468.7188" y2="468.7188"/><!--MD5=[0ffef9d20d81b68e9f16ca2407856ea5]
link Document to Event--><path codeLine="415" d="M1376,247.06 C1376,273.66 1376,301.58 1376,327.26 " fill="none" id="Document-to-Event" style="stroke:#A80036;stroke-width:1.0;"/><polygon fill="#A80036" points="1376,332.36,1380,323.36,1376,327.36,1372,323.36,1376,332.36" style="stroke:#A80036;stroke-width:1.0;"/><text fill="#000000" font-family="sans-serif" font-size="13" lengthAdjust="spacing" textLength="7" x="1368.7758" y="267.3007">*</text><text fill="#000000" font-family="sans-serif" font-size="13" lengthAdjust="spacing" textLength="24" x="1351.0438" y="321.2988">0..1</text><!--MD5=[e5d1958de036df2d6dcc599d52d2c22c]
link Document to PersonDocumentContribution--><path codeLine="416" d="M1250.94,247.06 C1201.99,293.68 1148.74,344.37 1111.47,379.85 " fill="none" id="Document-to-PersonDocumentContribution" style="stroke:#A80036;stroke-width:1.0;"/><polygon fill="#A80036" points="1107.46,383.67,1116.7287,380.3396,1111.0732,380.2139,1111.1989,374.5584,1107.46,383.67" style="stroke:#A80036;stroke-width:1.0;"/><text fill="#000000" font-family="sans-serif" font-size="13" lengthAdjust="spacing" textLength="7" x="1235.7041" y="267.3007">*</text><text fill="#000000" font-family="sans-serif" font-size="13" lengthAdjust="spacing" textLength="23" x="1089.507" y="372.932">1..*</text><!--MD5=[fe84eb323f7935cd03012b34ba00437e]
reverse link Document to JournalPublication--><path d="M1494.67,262.54 C1507.66,277.49 1520.65,292.54 1533,307 C1548.8,325.49 1565.8,345.78 1581.18,364.29 " fill="none" id="Document-backto-JournalPublication" style="stroke:#A80036;stroke-width:1.0;"/><polygon fill="none" points="1489.01,266.7,1481.16,247.02,1499.57,257.5,1489.01,266.7" style="stroke:#A80036;stroke-width:1.0;"/><!--MD5=[93557d900094736807324612f1d7a0fd]
link PersonContribution to OrganisationUnit--><path codeLine="274" d="M487.25,189.72 C459.4,209.33 427.57,230.25 397,247 C336.56,280.12 312.19,270.07 254,307 C235.23,318.91 216.57,333.54 199.44,348.42 " fill="none" id="PersonContribution-to-OrganisationUnit" style="stroke:#A80036;stroke-width:1.0;"/><polygon fill="#A80036" points="195.58,351.8,204.9817,348.8661,199.3367,348.5004,199.7024,342.8554,195.58,351.8" style="stroke:#A80036;stroke-width:1.0;"/><text fill="#000000" font-family="sans-serif" font-size="13" lengthAdjust="spacing" textLength="7" x="470.9258" y="209.4839">*</text><text fill="#000000" font-family="sans-serif" font-size="13" lengthAdjust="spacing" textLength="24" x="177.4493" y="340.97">0..1</text><!--MD5=[9706fd32f02ece002fdf0285cdfa5724]
link PersonContribution to Person--><path codeLine="275" d="M535.23,189.75 C517.44,222.26 494.97,263.34 473.77,302.09 " fill="none" id="PersonContribution-to-Person" style="stroke:#A80036;stroke-width:1.0;"/><polygon fill="#A80036" points="471.2,306.81,479.0294,300.8351,473.6003,302.4238,472.0115,296.9946,471.2,306.81" style="stroke:#A80036;stroke-width:1.0;"/><text fill="#000000" font-family="sans-serif" font-size="13" lengthAdjust="spacing" textLength="7" x="524.1536" y="209.5172">*</text><text fill="#000000" font-family="sans-serif" font-size="13" lengthAdjust="spacing" textLength="8" x="466.9294" y="296.0977">1</text><!--MD5=[7c3a41e6e482a37369adcc6a2388dc33]
link PersonContribution to AffiliationStatement--><path codeLine="276" d="M602.77,189.75 C632.28,243.69 674.68,321.21 702.76,372.54 " fill="none" id="PersonContribution-to-AffiliationStatement" style="stroke:#A80036;stroke-width:1.0;"/><polygon fill="#A80036" points="705.26,377.12,704.4485,367.3046,702.8597,372.7338,697.4306,371.1451,705.26,377.12" style="stroke:#A80036;stroke-width:1.0;"/><text fill="#000000" font-family="sans-serif" font-size="13" lengthAdjust="spacing" textLength="8" x="598.0261" y="209.5172">1</text><text fill="#000000" font-family="sans-serif" font-size="13" lengthAdjust="spacing" textLength="24" x="676.0543" y="366.4707">0..1</text><!--MD5=[35659570f74802050a643179e0b53628]
reverse link PersonContribution to PersonDocumentContribution--><path d="M714.57,198.84 C775.04,229.92 845.15,268.13 906,307 C942.75,330.47 981.84,360.08 1011.82,383.89 " fill="none" id="PersonContribution-backto-PersonDocumentContribution" style="stroke:#A80036;stroke-width:1.0;"/><polygon fill="none" points="711.18,204.97,696.55,189.65,717.55,192.5,711.18,204.97" style="stroke:#A80036;stroke-width:1.0;"/><!--MD5=[06ec1688802cca0d62906c8306576911]
@startuml journalPublication

    !includesub model.puml!Multilingual_Content
    !includesub model.puml!Organisation_Unit
    !includesub model.puml!Document
    !includesub model.puml!Journal_Publication
    !includesub model.puml!Person_Contribution
    !includesub model.puml!Person_Document_Contribution
    !includesub model.puml!Person
    !includesub model.puml!Event

@enduml

@startuml journalPublication

    class MultiLingualContent {
      LanguageTag language
      String content
      Integer priority
    }
    class OrganisationUnit {
      -Set<MultiLingualContent> name
      -String nameAbbreviation
      -Set<MultiLingualContent> keyword
      -Set<ResearchArea> researchAreas
      -GeoLocation location
      -ApproveStatus approveStatus
      -Integer oldId
      -String scopusAfid
    }
    class Document {
      -Set<MultiLingualContent> title
      -Set<MultiLingualContent> subTitle
      -Set<MultiLingualContent> description
      -Set<MultiLingualContent> note
      -Set<PersonDocumentContribution> contributors
      -Set<String> uris
      -String documentDate
      -Set<DocumentFile> fileItems
      -Set<DocumentFile> proof
      -Set<MultiLingualContent> keywords
      -ApproveStatus approveStatus
      -String note
      -String doi
      -String scopusId
      -Integer oldId
    }
    Document "*" - -> "0..1" Event
    Document "*" - -> "1..*" PersonDocumentContribution
    class JournalPublication extends Document {
      -String startPage;
      -String endPage;
      -Integer numberOfPages
      -String articleNumber
      -String volume
      -String issue
    }
    enum DocumentContributionType {
      AUTHOR
      EDITOR
      REVIEWER
      ADVISOR
    }
    class PersonContribution {
      -Person person
      -Set<MultiLingualContent> contributionDescription
      -AffiliationStatement affiliationStatement
      -Set<OrganisationUnit> institutions
      -Integer orderNumber
      -ApproveStatus approveStatus
    }

    PersonContribution "*" - -> "0..1" OrganisationUnit
    PersonContribution "*" - -> "1" Person
    PersonContribution "1" - -> "0..1" AffiliationStatement
    class AffiliationStatement {
      Set<MultiLingualContent> displayAffiliationStatement
      PersonName displayPersonName
      PostalAddress address
      Contact contact
    }
    class PersonDocumentContribution extends PersonContribution {
      -DocumentContributionType contributionType
      -boolean mainContributor
      -boolean correspondingContributor
    }
  class Person {
    -PersonName name
    -Set<PersonName> otherNames
    +String name()
    -Set<Involvement> involvements
    -Set<ExpertiseOrSkill> expertisesAndSkills
    -Set<Prize> prizes
    -Set<MultiLingualContent> biography
    -Set<MultiLingualContent> keyword
    -String apvnt
    -String mnid
    -String orcid
    -String scopusAuthorId
    -Integer oldId
    -Set<ResearchArea> researchAreas
    -ApproveStatus approveStatus
  }
    class Event {
      -Set<MultiLingualContent> name
      -Set<MultiLingualContent> nameAbbreviation
      -Set<MultiLingualContent> description
      -Set<MultiLingualContent> keywords
      -Boolean serialEvent
      -LocalDate dateFrom
      -LocalDate dateTo
      -Set<MultiLingualContent> state
      -Set<MultiLingualContent> place
      -Set<PersonEventContribution> contributors
      -Integer oldId
    }

@enduml

PlantUML version 1.2021.8(Sat Jun 26 10:20:59 CEST 2021)
(GPL source distribution)
Java Runtime: OpenJDK Runtime Environment
JVM: OpenJDK 64-Bit Server VM
Default Encoding: UTF-8
Language: en
Country: US
--></g></svg>