<?xml version="1.0" encoding="UTF-8" standalone="no"?><svg xmlns="http://www.w3.org/2000/svg" xmlns:xlink="http://www.w3.org/1999/xlink" contentScriptType="application/ecmascript" contentStyleType="text/css" height="561px" preserveAspectRatio="none" style="width:1438px;height:561px;background:#FFFFFF;" version="1.1" viewBox="0 0 1438 561" width="1438px" zoomAndPan="magnify"><defs><filter height="300%" id="fvwku28c1ovcb" width="300%" x="-1" y="-1"><feGaussianBlur result="blurOut" stdDeviation="2.0"/><feColorMatrix in="blurOut" result="blurOut2" type="matrix" values="0 0 0 0 0 0 0 0 0 0 0 0 0 0 0 0 0 0 .4 0"/><feOffset dx="4.0" dy="4.0" in="blurOut2" result="blurOut3"/><feBlend in="SourceGraphic" in2="blurOut3" mode="normal"/></filter></defs><g><!--MD5=[0363e4d56f3fb25261de8acdd2e161a1]
class MultiLingualContent--><rect codeLine="28" fill="#FEFECE" filter="url(#fvwku28c1ovcb)" height="86.4141" id="MultiLingualContent" style="stroke:#A80036;stroke-width:1.5;" width="155" x="86.5" y="84"/><ellipse cx="101.5" cy="100" fill="#ADD1B2" rx="11" ry="11" style="stroke:#A80036;stroke-width:1.0;"/><path d="M104.4688,105.6406 Q103.8906,105.9375 103.25,106.0781 Q102.6094,106.2344 101.9063,106.2344 Q99.4063,106.2344 98.0781,104.5938 Q96.7656,102.9375 96.7656,99.8125 Q96.7656,96.6875 98.0781,95.0313 Q99.4063,93.375 101.9063,93.375 Q102.6094,93.375 103.25,93.5313 Q103.9063,93.6875 104.4688,93.9844 L104.4688,96.7031 Q103.8438,96.125 103.25,95.8594 Q102.6563,95.5781 102.0313,95.5781 Q100.6875,95.5781 100,96.6563 Q99.3125,97.7188 99.3125,99.8125 Q99.3125,101.9063 100,102.9844 Q100.6875,104.0469 102.0313,104.0469 Q102.6563,104.0469 103.25,103.7813 Q103.8438,103.5 104.4688,102.9219 L104.4688,105.6406 Z " fill="#000000"/><text fill="#000000" font-family="sans-serif" font-size="12" lengthAdjust="spacing" textLength="123" x="115.5" y="104.1543">MultiLingualContent</text><line style="stroke:#A80036;stroke-width:1.5;" x1="87.5" x2="240.5" y1="116" y2="116"/><text fill="#000000" font-family="sans-serif" font-size="11" lengthAdjust="spacing" textLength="132" x="92.5" y="130.2104">LanguageTag language</text><text fill="#000000" font-family="sans-serif" font-size="11" lengthAdjust="spacing" textLength="80" x="92.5" y="143.0151">String content</text><text fill="#000000" font-family="sans-serif" font-size="11" lengthAdjust="spacing" textLength="84" x="92.5" y="155.8198">Integer priority</text><line style="stroke:#A80036;stroke-width:1.5;" x1="87.5" x2="240.5" y1="162.4141" y2="162.4141"/><!--MD5=[453a227509191e5b5ed2bc3fd5c8226a]
class OrganisationUnit--><rect codeLine="212" fill="#FEFECE" filter="url(#fvwku28c1ovcb)" height="150.4375" id="OrganisationUnit" style="stroke:#A80036;stroke-width:1.5;" width="230" x="277" y="52"/><ellipse cx="335.25" cy="68" fill="#ADD1B2" rx="11" ry="11" style="stroke:#A80036;stroke-width:1.0;"/><path d="M338.2188,73.6406 Q337.6406,73.9375 337,74.0781 Q336.3594,74.2344 335.6563,74.2344 Q333.1563,74.2344 331.8281,72.5938 Q330.5156,70.9375 330.5156,67.8125 Q330.5156,64.6875 331.8281,63.0313 Q333.1563,61.375 335.6563,61.375 Q336.3594,61.375 337,61.5313 Q337.6563,61.6875 338.2188,61.9844 L338.2188,64.7031 Q337.5938,64.125 337,63.8594 Q336.4063,63.5781 335.7813,63.5781 Q334.4375,63.5781 333.75,64.6563 Q333.0625,65.7188 333.0625,67.8125 Q333.0625,69.9063 333.75,70.9844 Q334.4375,72.0469 335.7813,72.0469 Q336.4063,72.0469 337,71.7813 Q337.5938,71.5 338.2188,70.9219 L338.2188,73.6406 Z " fill="#000000"/><text fill="#000000" font-family="sans-serif" font-size="12" lengthAdjust="spacing" textLength="105" x="355.75" y="72.1543">OrganisationUnit</text><line style="stroke:#A80036;stroke-width:1.5;" x1="278" x2="506" y1="84" y2="84"/><rect fill="none" height="6" style="stroke:#C82930;stroke-width:1.0;" width="6" x="285" y="92"/><text fill="#000000" font-family="sans-serif" font-size="11" lengthAdjust="spacing" textLength="183" x="297" y="98.2104">Set&lt;MultiLingualContent&gt; name</text><rect fill="none" height="6" style="stroke:#C82930;stroke-width:1.0;" width="6" x="285" y="104.8047"/><text fill="#000000" font-family="sans-serif" font-size="11" lengthAdjust="spacing" textLength="140" x="297" y="111.0151">String nameAbbreviation</text><rect fill="none" height="6" style="stroke:#C82930;stroke-width:1.0;" width="6" x="285" y="117.6094"/><text fill="#000000" font-family="sans-serif" font-size="11" lengthAdjust="spacing" textLength="198" x="297" y="123.8198">Set&lt;MultiLingualContent&gt; keyword</text><rect fill="none" height="6" style="stroke:#C82930;stroke-width:1.0;" width="6" x="285" y="130.4141"/><text fill="#000000" font-family="sans-serif" font-size="11" lengthAdjust="spacing" textLength="204" x="297" y="136.6245">Set&lt;ResearchArea&gt; researchAreas</text><rect fill="none" height="6" style="stroke:#C82930;stroke-width:1.0;" width="6" x="285" y="143.2188"/><text fill="#000000" font-family="sans-serif" font-size="11" lengthAdjust="spacing" textLength="118" x="297" y="149.4292">GeoLocation location</text><rect fill="none" height="6" style="stroke:#C82930;stroke-width:1.0;" width="6" x="285" y="156.0234"/><text fill="#000000" font-family="sans-serif" font-size="11" lengthAdjust="spacing" textLength="170" x="297" y="162.2339">ApproveStatus approveStatus</text><rect fill="none" height="6" style="stroke:#C82930;stroke-width:1.0;" width="6" x="285" y="168.8281"/><text fill="#000000" font-family="sans-serif" font-size="11" lengthAdjust="spacing" textLength="71" x="297" y="175.0386">Integer oldId</text><rect fill="none" height="6" style="stroke:#C82930;stroke-width:1.0;" width="6" x="285" y="181.6328"/><text fill="#000000" font-family="sans-serif" font-size="11" lengthAdjust="spacing" textLength="100" x="297" y="187.8433">String scopusAfid</text><line style="stroke:#A80036;stroke-width:1.5;" x1="278" x2="506" y1="194.4375" y2="194.4375"/><!--MD5=[59b530d44ae785dc18db921986a9c15c]
class Document--><rect codeLine="317" fill="#FEFECE" filter="url(#fvwku28c1ovcb)" height="240.0703" id="Document" style="stroke:#A80036;stroke-width:1.5;" width="302" x="779" y="7"/><ellipse cx="893.75" cy="23" fill="#ADD1B2" rx="11" ry="11" style="stroke:#A80036;stroke-width:1.0;"/><path d="M896.7188,28.6406 Q896.1406,28.9375 895.5,29.0781 Q894.8594,29.2344 894.1563,29.2344 Q891.6563,29.2344 890.3281,27.5938 Q889.0156,25.9375 889.0156,22.8125 Q889.0156,19.6875 890.3281,18.0313 Q891.6563,16.375 894.1563,16.375 Q894.8594,16.375 895.5,16.5313 Q896.1563,16.6875 896.7188,16.9844 L896.7188,19.7031 Q896.0938,19.125 895.5,18.8594 Q894.9063,18.5781 894.2813,18.5781 Q892.9375,18.5781 892.25,19.6563 Q891.5625,20.7188 891.5625,22.8125 Q891.5625,24.9063 892.25,25.9844 Q892.9375,27.0469 894.2813,27.0469 Q894.9063,27.0469 895.5,26.7813 Q896.0938,26.5 896.7188,25.9219 L896.7188,28.6406 Z " fill="#000000"/><text fill="#000000" font-family="sans-serif" font-size="12" lengthAdjust="spacing" textLength="64" x="914.25" y="27.1543">Document</text><line style="stroke:#A80036;stroke-width:1.5;" x1="780" x2="1080" y1="39" y2="39"/><rect fill="none" height="6" style="stroke:#C82930;stroke-width:1.0;" width="6" x="787" y="47"/><text fill="#000000" font-family="sans-serif" font-size="11" lengthAdjust="spacing" textLength="172" x="799" y="53.2104">Set&lt;MultiLingualContent&gt; title</text><rect fill="none" height="6" style="stroke:#C82930;stroke-width:1.0;" width="6" x="787" y="59.8047"/><text fill="#000000" font-family="sans-serif" font-size="11" lengthAdjust="spacing" textLength="196" x="799" y="66.0151">Set&lt;MultiLingualContent&gt; subTitle</text><rect fill="none" height="6" style="stroke:#C82930;stroke-width:1.0;" width="6" x="787" y="72.6094"/><text fill="#000000" font-family="sans-serif" font-size="11" lengthAdjust="spacing" textLength="214" x="799" y="78.8198">Set&lt;MultiLingualContent&gt; description</text><rect fill="none" height="6" style="stroke:#C82930;stroke-width:1.0;" width="6" x="787" y="85.4141"/><text fill="#000000" font-family="sans-serif" font-size="11" lengthAdjust="spacing" textLength="176" x="799" y="91.6245">Set&lt;MultiLingualContent&gt; note</text><rect fill="none" height="6" style="stroke:#C82930;stroke-width:1.0;" width="6" x="787" y="98.2188"/><text fill="#000000" font-family="sans-serif" font-size="11" lengthAdjust="spacing" textLength="276" x="799" y="104.4292">Set&lt;PersonDocumentContribution&gt; contributors</text><rect fill="none" height="6" style="stroke:#C82930;stroke-width:1.0;" width="6" x="787" y="111.0234"/><text fill="#000000" font-family="sans-serif" font-size="11" lengthAdjust="spacing" textLength="97" x="799" y="117.2339">Set&lt;String&gt; uris</text><rect fill="none" height="6" style="stroke:#C82930;stroke-width:1.0;" width="6" x="787" y="123.8281"/><text fill="#000000" font-family="sans-serif" font-size="11" lengthAdjust="spacing" textLength="120" x="799" y="130.0386">String documentDate</text><rect fill="none" height="6" style="stroke:#C82930;stroke-width:1.0;" width="6" x="787" y="136.6328"/><text fill="#000000" font-family="sans-serif" font-size="11" lengthAdjust="spacing" textLength="166" x="799" y="142.8433">Set&lt;DocumentFile&gt; fileItems</text><rect fill="none" height="6" style="stroke:#C82930;stroke-width:1.0;" width="6" x="787" y="149.4375"/><text fill="#000000" font-family="sans-serif" font-size="11" lengthAdjust="spacing" textLength="147" x="799" y="155.6479">Set&lt;DocumentFile&gt; proof</text><rect fill="none" height="6" style="stroke:#C82930;stroke-width:1.0;" width="6" x="787" y="162.2422"/><text fill="#000000" font-family="sans-serif" font-size="11" lengthAdjust="spacing" textLength="205" x="799" y="168.4526">Set&lt;MultiLingualContent&gt; keywords</text><rect fill="none" height="6" style="stroke:#C82930;stroke-width:1.0;" width="6" x="787" y="175.0469"/><text fill="#000000" font-family="sans-serif" font-size="11" lengthAdjust="spacing" textLength="170" x="799" y="181.2573">ApproveStatus approveStatus</text><rect fill="none" height="6" style="stroke:#C82930;stroke-width:1.0;" width="6" x="787" y="187.8516"/><text fill="#000000" font-family="sans-serif" font-size="11" lengthAdjust="spacing" textLength="63" x="799" y="194.062">String note</text><rect fill="none" height="6" style="stroke:#C82930;stroke-width:1.0;" width="6" x="787" y="200.6563"/><text fill="#000000" font-family="sans-serif" font-size="11" lengthAdjust="spacing" textLength="55" x="799" y="206.8667">String doi</text><rect fill="none" height="6" style="stroke:#C82930;stroke-width:1.0;" width="6" x="787" y="213.4609"/><text fill="#000000" font-family="sans-serif" font-size="11" lengthAdjust="spacing" textLength="89" x="799" y="219.6714">String scopusId</text><rect fill="none" height="6" style="stroke:#C82930;stroke-width:1.0;" width="6" x="787" y="226.2656"/><text fill="#000000" font-family="sans-serif" font-size="11" lengthAdjust="spacing" textLength="71" x="799" y="232.4761">Integer oldId</text><line style="stroke:#A80036;stroke-width:1.5;" x1="780" x2="1080" y1="239.0703" y2="239.0703"/><!--MD5=[ac13618b1a974308c1f12eb6c57723dc]
class Event--><rect fill="#FEFECE" filter="url(#fvwku28c1ovcb)" height="48" id="Event" style="stroke:#A80036;stroke-width:1.5;" width="67" x="788.5" y="403"/><ellipse cx="803.5" cy="419" fill="#ADD1B2" rx="11" ry="11" style="stroke:#A80036;stroke-width:1.0;"/><path d="M806.4688,424.6406 Q805.8906,424.9375 805.25,425.0781 Q804.6094,425.2344 803.9063,425.2344 Q801.4063,425.2344 800.0781,423.5938 Q798.7656,421.9375 798.7656,418.8125 Q798.7656,415.6875 800.0781,414.0313 Q801.4063,412.375 803.9063,412.375 Q804.6094,412.375 805.25,412.5313 Q805.9063,412.6875 806.4688,412.9844 L806.4688,415.7031 Q805.8438,415.125 805.25,414.8594 Q804.6563,414.5781 804.0313,414.5781 Q802.6875,414.5781 802,415.6563 Q801.3125,416.7188 801.3125,418.8125 Q801.3125,420.9063 802,421.9844 Q802.6875,423.0469 804.0313,423.0469 Q804.6563,423.0469 805.25,422.7813 Q805.8438,422.5 806.4688,421.9219 L806.4688,424.6406 Z " fill="#000000"/><text fill="#000000" font-family="sans-serif" font-size="12" lengthAdjust="spacing" textLength="35" x="817.5" y="423.1543">Event</text><line style="stroke:#A80036;stroke-width:1.5;" x1="789.5" x2="854.5" y1="435" y2="435"/><line style="stroke:#A80036;stroke-width:1.5;" x1="789.5" x2="854.5" y1="443" y2="443"/><!--MD5=[077feb261d5045b0f4bde0f21e93d5af]
class JournalPublication--><rect codeLine="415" fill="#FEFECE" filter="url(#fvwku28c1ovcb)" height="124.8281" id="JournalPublication" style="stroke:#A80036;stroke-width:1.5;" width="162" x="891" y="364.5"/><ellipse cx="914.1" cy="380.5" fill="#ADD1B2" rx="11" ry="11" style="stroke:#A80036;stroke-width:1.0;"/><path d="M917.0688,386.1406 Q916.4906,386.4375 915.85,386.5781 Q915.2094,386.7344 914.5063,386.7344 Q912.0063,386.7344 910.6781,385.0938 Q909.3656,383.4375 909.3656,380.3125 Q909.3656,377.1875 910.6781,375.5313 Q912.0063,373.875 914.5063,373.875 Q915.2094,373.875 915.85,374.0313 Q916.5063,374.1875 917.0688,374.4844 L917.0688,377.2031 Q916.4438,376.625 915.85,376.3594 Q915.2563,376.0781 914.6313,376.0781 Q913.2875,376.0781 912.6,377.1563 Q911.9125,378.2188 911.9125,380.3125 Q911.9125,382.4063 912.6,383.4844 Q913.2875,384.5469 914.6313,384.5469 Q915.2563,384.5469 915.85,384.2813 Q916.4438,384 917.0688,383.4219 L917.0688,386.1406 Z " fill="#000000"/><text fill="#000000" font-family="sans-serif" font-size="12" lengthAdjust="spacing" textLength="112" x="929.9" y="384.6543">JournalPublication</text><line style="stroke:#A80036;stroke-width:1.5;" x1="892" x2="1052" y1="396.5" y2="396.5"/><rect fill="none" height="6" style="stroke:#C82930;stroke-width:1.0;" width="6" x="899" y="404.5"/><text fill="#000000" font-family="sans-serif" font-size="11" lengthAdjust="spacing" textLength="97" x="911" y="410.7104">String startPage;</text><rect fill="none" height="6" style="stroke:#C82930;stroke-width:1.0;" width="6" x="899" y="417.3047"/><text fill="#000000" font-family="sans-serif" font-size="11" lengthAdjust="spacing" textLength="91" x="911" y="423.5151">String endPage;</text><rect fill="none" height="6" style="stroke:#C82930;stroke-width:1.0;" width="6" x="899" y="430.1094"/><text fill="#000000" font-family="sans-serif" font-size="11" lengthAdjust="spacing" textLength="136" x="911" y="436.3198">Integer numberOfPages</text><rect fill="none" height="6" style="stroke:#C82930;stroke-width:1.0;" width="6" x="899" y="442.9141"/><text fill="#000000" font-family="sans-serif" font-size="11" lengthAdjust="spacing" textLength="118" x="911" y="449.1245">String articleNumber</text><rect fill="none" height="6" style="stroke:#C82930;stroke-width:1.0;" width="6" x="899" y="455.7188"/><text fill="#000000" font-family="sans-serif" font-size="11" lengthAdjust="spacing" textLength="79" x="911" y="461.9292">String volume</text><rect fill="none" height="6" style="stroke:#C82930;stroke-width:1.0;" width="6" x="899" y="468.5234"/><text fill="#000000" font-family="sans-serif" font-size="11" lengthAdjust="spacing" textLength="69" x="911" y="474.7339">String issue</text><line style="stroke:#A80036;stroke-width:1.5;" x1="892" x2="1052" y1="481.3281" y2="481.3281"/><!--MD5=[f966dd9013cc04994824b91e9eb709ff]
class DocumentContributionType--><rect codeLine="248" fill="#FEFECE" filter="url(#fvwku28c1ovcb)" height="99.2188" id="DocumentContributionType" style="stroke:#A80036;stroke-width:1.5;" width="202" x="542" y="77.5"/><ellipse cx="557" cy="93.5" fill="#EB937F" rx="11" ry="11" style="stroke:#A80036;stroke-width:1.0;"/><path d="M561.1094,99.5 L553.3906,99.5 L553.3906,87.1094 L561.1094,87.1094 L561.1094,89.2656 L555.8438,89.2656 L555.8438,91.9375 L560.6094,91.9375 L560.6094,94.0938 L555.8438,94.0938 L555.8438,97.3438 L561.1094,97.3438 L561.1094,99.5 Z " fill="#000000"/><text fill="#000000" font-family="sans-serif" font-size="12" lengthAdjust="spacing" textLength="170" x="571" y="97.6543">DocumentContributionType</text><line style="stroke:#A80036;stroke-width:1.5;" x1="543" x2="743" y1="109.5" y2="109.5"/><text fill="#000000" font-family="sans-serif" font-size="11" lengthAdjust="spacing" textLength="46" x="548" y="123.7104">AUTHOR</text><text fill="#000000" font-family="sans-serif" font-size="11" lengthAdjust="spacing" textLength="41" x="548" y="136.5151">EDITOR</text><text fill="#000000" font-family="sans-serif" font-size="11" lengthAdjust="spacing" textLength="54" x="548" y="149.3198">REVIEWER</text><text fill="#000000" font-family="sans-serif" font-size="11" lengthAdjust="spacing" textLength="49" x="548" y="162.1245">ADVISOR</text><line style="stroke:#A80036;stroke-width:1.5;" x1="543" x2="743" y1="168.7188" y2="168.7188"/><!--MD5=[fbf67780fb5d0d02d7f1dbe96dbc72a0]
class PersonContribution--><rect codeLine="264" fill="#FEFECE" filter="url(#fvwku28c1ovcb)" height="124.8281" id="PersonContribution" style="stroke:#A80036;stroke-width:1.5;" width="308" x="1116" y="64.5"/><ellipse cx="1205.25" cy="80.5" fill="#ADD1B2" rx="11" ry="11" style="stroke:#A80036;stroke-width:1.0;"/><path d="M1208.2188,86.1406 Q1207.6406,86.4375 1207,86.5781 Q1206.3594,86.7344 1205.6563,86.7344 Q1203.1563,86.7344 1201.8281,85.0938 Q1200.5156,83.4375 1200.5156,80.3125 Q1200.5156,77.1875 1201.8281,75.5313 Q1203.1563,73.875 1205.6563,73.875 Q1206.3594,73.875 1207,74.0313 Q1207.6563,74.1875 1208.2188,74.4844 L1208.2188,77.2031 Q1207.5938,76.625 1207,76.3594 Q1206.4063,76.0781 1205.7813,76.0781 Q1204.4375,76.0781 1203.75,77.1563 Q1203.0625,78.2188 1203.0625,80.3125 Q1203.0625,82.4063 1203.75,83.4844 Q1204.4375,84.5469 1205.7813,84.5469 Q1206.4063,84.5469 1207,84.2813 Q1207.5938,84 1208.2188,83.4219 L1208.2188,86.1406 Z " fill="#000000"/><text fill="#000000" font-family="sans-serif" font-size="12" lengthAdjust="spacing" textLength="121" x="1225.75" y="84.6543">PersonContribution</text><line style="stroke:#A80036;stroke-width:1.5;" x1="1117" x2="1423" y1="96.5" y2="96.5"/><rect fill="none" height="6" style="stroke:#C82930;stroke-width:1.0;" width="6" x="1124" y="104.5"/><text fill="#000000" font-family="sans-serif" font-size="11" lengthAdjust="spacing" textLength="84" x="1136" y="110.7104">Person person</text><rect fill="none" height="6" style="stroke:#C82930;stroke-width:1.0;" width="6" x="1124" y="117.3047"/><text fill="#000000" font-family="sans-serif" font-size="11" lengthAdjust="spacing" textLength="282" x="1136" y="123.5151">Set&lt;MultiLingualContent&gt; contributionDescription</text><rect fill="none" height="6" style="stroke:#C82930;stroke-width:1.0;" width="6" x="1124" y="130.1094"/><text fill="#000000" font-family="sans-serif" font-size="11" lengthAdjust="spacing" textLength="226" x="1136" y="136.3198">AffiliationStatement affiliationStatement</text><rect fill="none" height="6" style="stroke:#C82930;stroke-width:1.0;" width="6" x="1124" y="142.9141"/><text fill="#000000" font-family="sans-serif" font-size="11" lengthAdjust="spacing" textLength="199" x="1136" y="149.1245">Set&lt;OrganisationUnit&gt; institutions</text><rect fill="none" height="6" style="stroke:#C82930;stroke-width:1.0;" width="6" x="1124" y="155.7188"/><text fill="#000000" font-family="sans-serif" font-size="11" lengthAdjust="spacing" textLength="120" x="1136" y="161.9292">Integer orderNumber</text><rect fill="none" height="6" style="stroke:#C82930;stroke-width:1.0;" width="6" x="1124" y="168.5234"/><text fill="#000000" font-family="sans-serif" font-size="11" lengthAdjust="spacing" textLength="170" x="1136" y="174.7339">ApproveStatus approveStatus</text><line style="stroke:#A80036;stroke-width:1.5;" x1="1117" x2="1423" y1="181.3281" y2="181.3281"/><!--MD5=[b793bcee6c3bcc18e51e7a40726c5e79]
class AffiliationStatement--><rect codeLine="276" fill="#FEFECE" filter="url(#fvwku28c1ovcb)" height="99.2188" id="AffiliationStatement" style="stroke:#A80036;stroke-width:1.5;" width="314" x="7" y="377.5"/><ellipse cx="98.25" cy="393.5" fill="#ADD1B2" rx="11" ry="11" style="stroke:#A80036;stroke-width:1.0;"/><path d="M101.2188,399.1406 Q100.6406,399.4375 100,399.5781 Q99.3594,399.7344 98.6563,399.7344 Q96.1563,399.7344 94.8281,398.0938 Q93.5156,396.4375 93.5156,393.3125 Q93.5156,390.1875 94.8281,388.5313 Q96.1563,386.875 98.6563,386.875 Q99.3594,386.875 100,387.0313 Q100.6563,387.1875 101.2188,387.4844 L101.2188,390.2031 Q100.5938,389.625 100,389.3594 Q99.4063,389.0781 98.7813,389.0781 Q97.4375,389.0781 96.75,390.1563 Q96.0625,391.2188 96.0625,393.3125 Q96.0625,395.4063 96.75,396.4844 Q97.4375,397.5469 98.7813,397.5469 Q99.4063,397.5469 100,397.2813 Q100.5938,397 101.2188,396.4219 L101.2188,399.1406 Z " fill="#000000"/><text fill="#000000" font-family="sans-serif" font-size="12" lengthAdjust="spacing" textLength="123" x="118.75" y="397.6543">AffiliationStatement</text><line style="stroke:#A80036;stroke-width:1.5;" x1="8" x2="320" y1="409.5" y2="409.5"/><text fill="#000000" font-family="sans-serif" font-size="11" lengthAdjust="spacing" textLength="302" x="13" y="423.7104">Set&lt;MultiLingualContent&gt; displayAffiliationStatement</text><text fill="#000000" font-family="sans-serif" font-size="11" lengthAdjust="spacing" textLength="190" x="13" y="436.5151">PersonName displayPersonName</text><text fill="#000000" font-family="sans-serif" font-size="11" lengthAdjust="spacing" textLength="133" x="13" y="449.3198">PostalAddress address</text><text fill="#000000" font-family="sans-serif" font-size="11" lengthAdjust="spacing" textLength="88" x="13" y="462.1245">Contact contact</text><line style="stroke:#A80036;stroke-width:1.5;" x1="8" x2="320" y1="468.7188" y2="468.7188"/><!--MD5=[a8629a4ee64780b1db10893afabddcba]
class PersonDocumentContribution--><rect codeLine="285" fill="#FEFECE" filter="url(#fvwku28c1ovcb)" height="86.4141" id="PersonDocumentContribution" style="stroke:#A80036;stroke-width:1.5;" width="277" x="1131.5" y="384"/><ellipse cx="1173.5" cy="400" fill="#ADD1B2" rx="11" ry="11" style="stroke:#A80036;stroke-width:1.0;"/><path d="M1176.4688,405.6406 Q1175.8906,405.9375 1175.25,406.0781 Q1174.6094,406.2344 1173.9063,406.2344 Q1171.4063,406.2344 1170.0781,404.5938 Q1168.7656,402.9375 1168.7656,399.8125 Q1168.7656,396.6875 1170.0781,395.0313 Q1171.4063,393.375 1173.9063,393.375 Q1174.6094,393.375 1175.25,393.5313 Q1175.9063,393.6875 1176.4688,393.9844 L1176.4688,396.7031 Q1175.8438,396.125 1175.25,395.8594 Q1174.6563,395.5781 1174.0313,395.5781 Q1172.6875,395.5781 1172,396.6563 Q1171.3125,397.7188 1171.3125,399.8125 Q1171.3125,401.9063 1172,402.9844 Q1172.6875,404.0469 1174.0313,404.0469 Q1174.6563,404.0469 1175.25,403.7813 Q1175.8438,403.5 1176.4688,402.9219 L1176.4688,405.6406 Z " fill="#000000"/><text fill="#000000" font-family="sans-serif" font-size="12" lengthAdjust="spacing" textLength="185" x="1193.5" y="404.1543">PersonDocumentContribution</text><line style="stroke:#A80036;stroke-width:1.5;" x1="1132.5" x2="1407.5" y1="416" y2="416"/><rect fill="none" height="6" style="stroke:#C82930;stroke-width:1.0;" width="6" x="1139.5" y="424"/><text fill="#000000" font-family="sans-serif" font-size="11" lengthAdjust="spacing" textLength="251" x="1151.5" y="430.2104">DocumentContributionType contributionType</text><rect fill="none" height="6" style="stroke:#C82930;stroke-width:1.0;" width="6" x="1139.5" y="436.8047"/><text fill="#000000" font-family="sans-serif" font-size="11" lengthAdjust="spacing" textLength="141" x="1151.5" y="443.0151">boolean mainContributor</text><rect fill="none" height="6" style="stroke:#C82930;stroke-width:1.0;" width="6" x="1139.5" y="449.6094"/><text fill="#000000" font-family="sans-serif" font-size="11" lengthAdjust="spacing" textLength="195" x="1151.5" y="455.8198">boolean correspondingContributor</text><line style="stroke:#A80036;stroke-width:1.5;" x1="1132.5" x2="1407.5" y1="462.4141" y2="462.4141"/><!--MD5=[09ce52be0ee7de43c61b6e2d59bf108b]
class Person--><rect codeLine="95" fill="#FEFECE" filter="url(#fvwku28c1ovcb)" height="240.0703" id="Person" style="stroke:#A80036;stroke-width:1.5;" width="268" x="356" y="307"/><ellipse cx="463.75" cy="323" fill="#ADD1B2" rx="11" ry="11" style="stroke:#A80036;stroke-width:1.0;"/><path d="M466.7188,328.6406 Q466.1406,328.9375 465.5,329.0781 Q464.8594,329.2344 464.1563,329.2344 Q461.6563,329.2344 460.3281,327.5938 Q459.0156,325.9375 459.0156,322.8125 Q459.0156,319.6875 460.3281,318.0313 Q461.6563,316.375 464.1563,316.375 Q464.8594,316.375 465.5,316.5313 Q466.1563,316.6875 466.7188,316.9844 L466.7188,319.7031 Q466.0938,319.125 465.5,318.8594 Q464.9063,318.5781 464.2813,318.5781 Q462.9375,318.5781 462.25,319.6563 Q461.5625,320.7188 461.5625,322.8125 Q461.5625,324.9063 462.25,325.9844 Q462.9375,327.0469 464.2813,327.0469 Q464.9063,327.0469 465.5,326.7813 Q466.0938,326.5 466.7188,325.9219 L466.7188,328.6406 Z " fill="#000000"/><text fill="#000000" font-family="sans-serif" font-size="12" lengthAdjust="spacing" textLength="44" x="484.25" y="327.1543">Person</text><line style="stroke:#A80036;stroke-width:1.5;" x1="357" x2="623" y1="339" y2="339"/><rect fill="none" height="6" style="stroke:#C82930;stroke-width:1.0;" width="6" x="364" y="347"/><text fill="#000000" font-family="sans-serif" font-size="11" lengthAdjust="spacing" textLength="109" x="376" y="353.2104">PersonName name</text><rect fill="none" height="6" style="stroke:#C82930;stroke-width:1.0;" width="6" x="364" y="359.8047"/><text fill="#000000" font-family="sans-serif" font-size="11" lengthAdjust="spacing" textLength="184" x="376" y="366.0151">Set&lt;PersonName&gt; otherNames</text><rect fill="none" height="6" style="stroke:#C82930;stroke-width:1.0;" width="6" x="364" y="372.6094"/><text fill="#000000" font-family="sans-serif" font-size="11" lengthAdjust="spacing" textLength="184" x="376" y="378.8198">Set&lt;Involvement&gt; involvements</text><rect fill="none" height="6" style="stroke:#C82930;stroke-width:1.0;" width="6" x="364" y="385.4141"/><text fill="#000000" font-family="sans-serif" font-size="11" lengthAdjust="spacing" textLength="242" x="376" y="391.6245">Set&lt;ExpertiseOrSkill&gt; expertisesAndSkills</text><rect fill="none" height="6" style="stroke:#C82930;stroke-width:1.0;" width="6" x="364" y="398.2188"/><text fill="#000000" font-family="sans-serif" font-size="11" lengthAdjust="spacing" textLength="102" x="376" y="404.4292">Set&lt;Prize&gt; prizes</text><rect fill="none" height="6" style="stroke:#C82930;stroke-width:1.0;" width="6" x="364" y="411.0234"/><text fill="#000000" font-family="sans-serif" font-size="11" lengthAdjust="spacing" textLength="207" x="376" y="417.2339">Set&lt;MultiLingualContent&gt; biography</text><rect fill="none" height="6" style="stroke:#C82930;stroke-width:1.0;" width="6" x="364" y="423.8281"/><text fill="#000000" font-family="sans-serif" font-size="11" lengthAdjust="spacing" textLength="198" x="376" y="430.0386">Set&lt;MultiLingualContent&gt; keyword</text><rect fill="none" height="6" style="stroke:#C82930;stroke-width:1.0;" width="6" x="364" y="436.6328"/><text fill="#000000" font-family="sans-serif" font-size="11" lengthAdjust="spacing" textLength="69" x="376" y="442.8433">String apvnt</text><rect fill="none" height="6" style="stroke:#C82930;stroke-width:1.0;" width="6" x="364" y="449.4375"/><text fill="#000000" font-family="sans-serif" font-size="11" lengthAdjust="spacing" textLength="66" x="376" y="455.6479">String mnid</text><rect fill="none" height="6" style="stroke:#C82930;stroke-width:1.0;" width="6" x="364" y="462.2422"/><text fill="#000000" font-family="sans-serif" font-size="11" lengthAdjust="spacing" textLength="66" x="376" y="468.4526">String orcid</text><rect fill="none" height="6" style="stroke:#C82930;stroke-width:1.0;" width="6" x="364" y="475.0469"/><text fill="#000000" font-family="sans-serif" font-size="11" lengthAdjust="spacing" textLength="126" x="376" y="481.2573">String scopusAuthorId</text><rect fill="none" height="6" style="stroke:#C82930;stroke-width:1.0;" width="6" x="364" y="487.8516"/><text fill="#000000" font-family="sans-serif" font-size="11" lengthAdjust="spacing" textLength="71" x="376" y="494.062">Integer oldId</text><rect fill="none" height="6" style="stroke:#C82930;stroke-width:1.0;" width="6" x="364" y="500.6563"/><text fill="#000000" font-family="sans-serif" font-size="11" lengthAdjust="spacing" textLength="204" x="376" y="506.8667">Set&lt;ResearchArea&gt; researchAreas</text><rect fill="none" height="6" style="stroke:#C82930;stroke-width:1.0;" width="6" x="364" y="513.4609"/><text fill="#000000" font-family="sans-serif" font-size="11" lengthAdjust="spacing" textLength="170" x="376" y="519.6714">ApproveStatus approveStatus</text><line style="stroke:#A80036;stroke-width:1.5;" x1="357" x2="623" y1="526.2656" y2="526.2656"/><ellipse cx="367" cy="537.2656" fill="#84BE84" rx="3" ry="3" style="stroke:#038048;stroke-width:1.0;"/><text fill="#000000" font-family="sans-serif" font-size="11" lengthAdjust="spacing" textLength="78" x="376" y="540.4761">String name()</text><!--MD5=[0ffef9d20d81b68e9f16ca2407856ea5]
link Document to Event--><path codeLine="409" d="M886.85,247.06 C866.8,302.38 844.67,363.44 832.14,398.02 " fill="none" id="Document-to-Event" style="stroke:#A80036;stroke-width:1.0;"/><polygon fill="#A80036" points="830.36,402.93,837.1827,395.8272,832.0607,398.2281,829.6597,393.1061,830.36,402.93" style="stroke:#A80036;stroke-width:1.0;"/><text fill="#000000" font-family="sans-serif" font-size="13" lengthAdjust="spacing" textLength="7" x="876.8615" y="267.3007">*</text><text fill="#000000" font-family="sans-serif" font-size="13" lengthAdjust="spacing" textLength="24" x="805.4273" y="391.9241">0..1</text><!--MD5=[fe84eb323f7935cd03012b34ba00437e]
reverse link Document to JournalPublication--><path d="M949.6,267.04 C954.41,301.2 959.33,336.07 963.32,364.41 " fill="none" id="Document-backto-JournalPublication" style="stroke:#A80036;stroke-width:1.0;"/><polygon fill="none" points="942.64,267.84,946.78,247.06,956.5,265.89,942.64,267.84" style="stroke:#A80036;stroke-width:1.0;"/><!--MD5=[35659570f74802050a643179e0b53628]
reverse link PersonContribution to PersonDocumentContribution--><path d="M1270,210.09 C1270,266.48 1270,339.01 1270,384 " fill="none" id="PersonContribution-backto-PersonDocumentContribution" style="stroke:#A80036;stroke-width:1.0;"/><polygon fill="none" points="1263,209.75,1270,189.75,1277,209.75,1263,209.75" style="stroke:#A80036;stroke-width:1.0;"/><!--MD5=[59b177e622787b8cc6c79bc37ab33f86]
link MultiLingualContent to OrganisationUnit--><!--MD5=[68a2f6a12281e728662f3b704ae00864]
link OrganisationUnit to DocumentContributionType--><!--MD5=[e21749ab7a31a15763f2e5848d0ad230]
link MultiLingualContent to AffiliationStatement--><!--MD5=[4680e9810b552f3dcc0b45b54b19d1cc]
link AffiliationStatement to Person--><!--MD5=[3fe5ef86d5cf59db8f970bdb9c34f2f1]
@startuml journalPublication

    !includesub model.puml!Multilingual_Content
    !includesub model.puml!Organisation_Unit
    !includesub model.puml!Document
    !includesub model.puml!Journal_Publication
    !includesub model.puml!Person_Contribution
    !includesub model.puml!Person_Document_Contribution
    !includesub model.puml!Person

@enduml

@startuml journalPublication

    class MultiLingualContent {
      LanguageTag language
      String content
      Integer priority
    }
    class OrganisationUnit {
      -Set<MultiLingualContent> name
      -String nameAbbreviation
      -Set<MultiLingualContent> keyword
      -Set<ResearchArea> researchAreas
      -GeoLocation location
      -ApproveStatus approveStatus
      -Integer oldId
      -String scopusAfid
    }
    class Document {
      -Set<MultiLingualContent> title
      -Set<MultiLingualContent> subTitle
      -Set<MultiLingualContent> description
      -Set<MultiLingualContent> note
      -Set<PersonDocumentContribution> contributors
      -Set<String> uris
      -String documentDate
      -Set<DocumentFile> fileItems
      -Set<DocumentFile> proof
      -Set<MultiLingualContent> keywords
      -ApproveStatus approveStatus
      -String note
      -String doi
      -String scopusId
      -Integer oldId
    }
    Document "*" - -> "0..1" Event
    class JournalPublication extends Document {
      -String startPage;
      -String endPage;
      -Integer numberOfPages
      -String articleNumber
      -String volume
      -String issue
    }
    enum DocumentContributionType {
      AUTHOR
      EDITOR
      REVIEWER
      ADVISOR
    }
    class PersonContribution {
      -Person person
      -Set<MultiLingualContent> contributionDescription
      -AffiliationStatement affiliationStatement
      -Set<OrganisationUnit> institutions
      -Integer orderNumber
      -ApproveStatus approveStatus
    }
    class AffiliationStatement {
      Set<MultiLingualContent> displayAffiliationStatement
      PersonName displayPersonName
      PostalAddress address
      Contact contact
    }
    class PersonDocumentContribution extends PersonContribution {
      -DocumentContributionType contributionType
      -boolean mainContributor
      -boolean correspondingContributor
    }
  class Person {
    -PersonName name
    -Set<PersonName> otherNames
    +String name()
    -Set<Involvement> involvements
    -Set<ExpertiseOrSkill> expertisesAndSkills
    -Set<Prize> prizes
    -Set<MultiLingualContent> biography
    -Set<MultiLingualContent> keyword
    -String apvnt
    -String mnid
    -String orcid
    -String scopusAuthorId
    -Integer oldId
    -Set<ResearchArea> researchAreas
    -ApproveStatus approveStatus
  }

@enduml

PlantUML version 1.2021.8(Sat Jun 26 10:20:59 CEST 2021)
(GPL source distribution)
Java Runtime: OpenJDK Runtime Environment
JVM: OpenJDK 64-Bit Server VM
Default Encoding: UTF-8
Language: en
Country: US
--></g></svg>