<?xml version="1.0" encoding="UTF-8" standalone="no"?><svg xmlns="http://www.w3.org/2000/svg" xmlns:xlink="http://www.w3.org/1999/xlink" contentScriptType="application/ecmascript" contentStyleType="text/css" height="561px" preserveAspectRatio="none" style="width:1727px;height:561px;background:#FFFFFF;" version="1.1" viewBox="0 0 1727 561" width="1727px" zoomAndPan="magnify"><defs><filter height="300%" id="f1e72khytizm6m" width="300%" x="-1" y="-1"><feGaussianBlur result="blurOut" stdDeviation="2.0"/><feColorMatrix in="blurOut" result="blurOut2" type="matrix" values="0 0 0 0 0 0 0 0 0 0 0 0 0 0 0 0 0 0 .4 0"/><feOffset dx="4.0" dy="4.0" in="blurOut2" result="blurOut3"/><feBlend in="SourceGraphic" in2="blurOut3" mode="normal"/></filter></defs><g><!--MD5=[0363e4d56f3fb25261de8acdd2e161a1]
class MultiLingualContent--><rect codeLine="28" fill="#FEFECE" filter="url(#f1e72khytizm6m)" height="86.4141" id="MultiLingualContent" style="stroke:#A80036;stroke-width:1.5;" width="155" x="86.5" y="84"/><ellipse cx="101.5" cy="100" fill="#ADD1B2" rx="11" ry="11" style="stroke:#A80036;stroke-width:1.0;"/><path d="M104.4688,105.6406 Q103.8906,105.9375 103.25,106.0781 Q102.6094,106.2344 101.9063,106.2344 Q99.4063,106.2344 98.0781,104.5938 Q96.7656,102.9375 96.7656,99.8125 Q96.7656,96.6875 98.0781,95.0313 Q99.4063,93.375 101.9063,93.375 Q102.6094,93.375 103.25,93.5313 Q103.9063,93.6875 104.4688,93.9844 L104.4688,96.7031 Q103.8438,96.125 103.25,95.8594 Q102.6563,95.5781 102.0313,95.5781 Q100.6875,95.5781 100,96.6563 Q99.3125,97.7188 99.3125,99.8125 Q99.3125,101.9063 100,102.9844 Q100.6875,104.0469 102.0313,104.0469 Q102.6563,104.0469 103.25,103.7813 Q103.8438,103.5 104.4688,102.9219 L104.4688,105.6406 Z " fill="#000000"/><text fill="#000000" font-family="sans-serif" font-size="12" lengthAdjust="spacing" textLength="123" x="115.5" y="104.1543">MultiLingualContent</text><line style="stroke:#A80036;stroke-width:1.5;" x1="87.5" x2="240.5" y1="116" y2="116"/><text fill="#000000" font-family="sans-serif" font-size="11" lengthAdjust="spacing" textLength="132" x="92.5" y="130.2104">LanguageTag language</text><text fill="#000000" font-family="sans-serif" font-size="11" lengthAdjust="spacing" textLength="80" x="92.5" y="143.0151">String content</text><text fill="#000000" font-family="sans-serif" font-size="11" lengthAdjust="spacing" textLength="84" x="92.5" y="155.8198">Integer priority</text><line style="stroke:#A80036;stroke-width:1.5;" x1="87.5" x2="240.5" y1="162.4141" y2="162.4141"/><!--MD5=[453a227509191e5b5ed2bc3fd5c8226a]
class OrganisationUnit--><rect codeLine="212" fill="#FEFECE" filter="url(#f1e72khytizm6m)" height="150.4375" id="OrganisationUnit" style="stroke:#A80036;stroke-width:1.5;" width="230" x="356" y="352"/><ellipse cx="414.25" cy="368" fill="#ADD1B2" rx="11" ry="11" style="stroke:#A80036;stroke-width:1.0;"/><path d="M417.2188,373.6406 Q416.6406,373.9375 416,374.0781 Q415.3594,374.2344 414.6563,374.2344 Q412.1563,374.2344 410.8281,372.5938 Q409.5156,370.9375 409.5156,367.8125 Q409.5156,364.6875 410.8281,363.0313 Q412.1563,361.375 414.6563,361.375 Q415.3594,361.375 416,361.5313 Q416.6563,361.6875 417.2188,361.9844 L417.2188,364.7031 Q416.5938,364.125 416,363.8594 Q415.4063,363.5781 414.7813,363.5781 Q413.4375,363.5781 412.75,364.6563 Q412.0625,365.7188 412.0625,367.8125 Q412.0625,369.9063 412.75,370.9844 Q413.4375,372.0469 414.7813,372.0469 Q415.4063,372.0469 416,371.7813 Q416.5938,371.5 417.2188,370.9219 L417.2188,373.6406 Z " fill="#000000"/><text fill="#000000" font-family="sans-serif" font-size="12" lengthAdjust="spacing" textLength="105" x="434.75" y="372.1543">OrganisationUnit</text><line style="stroke:#A80036;stroke-width:1.5;" x1="357" x2="585" y1="384" y2="384"/><rect fill="none" height="6" style="stroke:#C82930;stroke-width:1.0;" width="6" x="364" y="392"/><text fill="#000000" font-family="sans-serif" font-size="11" lengthAdjust="spacing" textLength="183" x="376" y="398.2104">Set&lt;MultiLingualContent&gt; name</text><rect fill="none" height="6" style="stroke:#C82930;stroke-width:1.0;" width="6" x="364" y="404.8047"/><text fill="#000000" font-family="sans-serif" font-size="11" lengthAdjust="spacing" textLength="140" x="376" y="411.0151">String nameAbbreviation</text><rect fill="none" height="6" style="stroke:#C82930;stroke-width:1.0;" width="6" x="364" y="417.6094"/><text fill="#000000" font-family="sans-serif" font-size="11" lengthAdjust="spacing" textLength="198" x="376" y="423.8198">Set&lt;MultiLingualContent&gt; keyword</text><rect fill="none" height="6" style="stroke:#C82930;stroke-width:1.0;" width="6" x="364" y="430.4141"/><text fill="#000000" font-family="sans-serif" font-size="11" lengthAdjust="spacing" textLength="204" x="376" y="436.6245">Set&lt;ResearchArea&gt; researchAreas</text><rect fill="none" height="6" style="stroke:#C82930;stroke-width:1.0;" width="6" x="364" y="443.2188"/><text fill="#000000" font-family="sans-serif" font-size="11" lengthAdjust="spacing" textLength="118" x="376" y="449.4292">GeoLocation location</text><rect fill="none" height="6" style="stroke:#C82930;stroke-width:1.0;" width="6" x="364" y="456.0234"/><text fill="#000000" font-family="sans-serif" font-size="11" lengthAdjust="spacing" textLength="170" x="376" y="462.2339">ApproveStatus approveStatus</text><rect fill="none" height="6" style="stroke:#C82930;stroke-width:1.0;" width="6" x="364" y="468.8281"/><text fill="#000000" font-family="sans-serif" font-size="11" lengthAdjust="spacing" textLength="71" x="376" y="475.0386">Integer oldId</text><rect fill="none" height="6" style="stroke:#C82930;stroke-width:1.0;" width="6" x="364" y="481.6328"/><text fill="#000000" font-family="sans-serif" font-size="11" lengthAdjust="spacing" textLength="100" x="376" y="487.8433">String scopusAfid</text><line style="stroke:#A80036;stroke-width:1.5;" x1="357" x2="585" y1="494.4375" y2="494.4375"/><!--MD5=[59b530d44ae785dc18db921986a9c15c]
class Document--><rect codeLine="320" fill="#FEFECE" filter="url(#f1e72khytizm6m)" height="240.0703" id="Document" style="stroke:#A80036;stroke-width:1.5;" width="302" x="1225" y="7"/><ellipse cx="1339.75" cy="23" fill="#ADD1B2" rx="11" ry="11" style="stroke:#A80036;stroke-width:1.0;"/><path d="M1342.7188,28.6406 Q1342.1406,28.9375 1341.5,29.0781 Q1340.8594,29.2344 1340.1563,29.2344 Q1337.6563,29.2344 1336.3281,27.5938 Q1335.0156,25.9375 1335.0156,22.8125 Q1335.0156,19.6875 1336.3281,18.0313 Q1337.6563,16.375 1340.1563,16.375 Q1340.8594,16.375 1341.5,16.5313 Q1342.1563,16.6875 1342.7188,16.9844 L1342.7188,19.7031 Q1342.0938,19.125 1341.5,18.8594 Q1340.9063,18.5781 1340.2813,18.5781 Q1338.9375,18.5781 1338.25,19.6563 Q1337.5625,20.7188 1337.5625,22.8125 Q1337.5625,24.9063 1338.25,25.9844 Q1338.9375,27.0469 1340.2813,27.0469 Q1340.9063,27.0469 1341.5,26.7813 Q1342.0938,26.5 1342.7188,25.9219 L1342.7188,28.6406 Z " fill="#000000"/><text fill="#000000" font-family="sans-serif" font-size="12" lengthAdjust="spacing" textLength="64" x="1360.25" y="27.1543">Document</text><line style="stroke:#A80036;stroke-width:1.5;" x1="1226" x2="1526" y1="39" y2="39"/><rect fill="none" height="6" style="stroke:#C82930;stroke-width:1.0;" width="6" x="1233" y="47"/><text fill="#000000" font-family="sans-serif" font-size="11" lengthAdjust="spacing" textLength="172" x="1245" y="53.2104">Set&lt;MultiLingualContent&gt; title</text><rect fill="none" height="6" style="stroke:#C82930;stroke-width:1.0;" width="6" x="1233" y="59.8047"/><text fill="#000000" font-family="sans-serif" font-size="11" lengthAdjust="spacing" textLength="196" x="1245" y="66.0151">Set&lt;MultiLingualContent&gt; subTitle</text><rect fill="none" height="6" style="stroke:#C82930;stroke-width:1.0;" width="6" x="1233" y="72.6094"/><text fill="#000000" font-family="sans-serif" font-size="11" lengthAdjust="spacing" textLength="214" x="1245" y="78.8198">Set&lt;MultiLingualContent&gt; description</text><rect fill="none" height="6" style="stroke:#C82930;stroke-width:1.0;" width="6" x="1233" y="85.4141"/><text fill="#000000" font-family="sans-serif" font-size="11" lengthAdjust="spacing" textLength="176" x="1245" y="91.6245">Set&lt;MultiLingualContent&gt; note</text><rect fill="none" height="6" style="stroke:#C82930;stroke-width:1.0;" width="6" x="1233" y="98.2188"/><text fill="#000000" font-family="sans-serif" font-size="11" lengthAdjust="spacing" textLength="276" x="1245" y="104.4292">Set&lt;PersonDocumentContribution&gt; contributors</text><rect fill="none" height="6" style="stroke:#C82930;stroke-width:1.0;" width="6" x="1233" y="111.0234"/><text fill="#000000" font-family="sans-serif" font-size="11" lengthAdjust="spacing" textLength="97" x="1245" y="117.2339">Set&lt;String&gt; uris</text><rect fill="none" height="6" style="stroke:#C82930;stroke-width:1.0;" width="6" x="1233" y="123.8281"/><text fill="#000000" font-family="sans-serif" font-size="11" lengthAdjust="spacing" textLength="120" x="1245" y="130.0386">String documentDate</text><rect fill="none" height="6" style="stroke:#C82930;stroke-width:1.0;" width="6" x="1233" y="136.6328"/><text fill="#000000" font-family="sans-serif" font-size="11" lengthAdjust="spacing" textLength="166" x="1245" y="142.8433">Set&lt;DocumentFile&gt; fileItems</text><rect fill="none" height="6" style="stroke:#C82930;stroke-width:1.0;" width="6" x="1233" y="149.4375"/><text fill="#000000" font-family="sans-serif" font-size="11" lengthAdjust="spacing" textLength="147" x="1245" y="155.6479">Set&lt;DocumentFile&gt; proof</text><rect fill="none" height="6" style="stroke:#C82930;stroke-width:1.0;" width="6" x="1233" y="162.2422"/><text fill="#000000" font-family="sans-serif" font-size="11" lengthAdjust="spacing" textLength="205" x="1245" y="168.4526">Set&lt;MultiLingualContent&gt; keywords</text><rect fill="none" height="6" style="stroke:#C82930;stroke-width:1.0;" width="6" x="1233" y="175.0469"/><text fill="#000000" font-family="sans-serif" font-size="11" lengthAdjust="spacing" textLength="170" x="1245" y="181.2573">ApproveStatus approveStatus</text><rect fill="none" height="6" style="stroke:#C82930;stroke-width:1.0;" width="6" x="1233" y="187.8516"/><text fill="#000000" font-family="sans-serif" font-size="11" lengthAdjust="spacing" textLength="63" x="1245" y="194.062">String note</text><rect fill="none" height="6" style="stroke:#C82930;stroke-width:1.0;" width="6" x="1233" y="200.6563"/><text fill="#000000" font-family="sans-serif" font-size="11" lengthAdjust="spacing" textLength="55" x="1245" y="206.8667">String doi</text><rect fill="none" height="6" style="stroke:#C82930;stroke-width:1.0;" width="6" x="1233" y="213.4609"/><text fill="#000000" font-family="sans-serif" font-size="11" lengthAdjust="spacing" textLength="89" x="1245" y="219.6714">String scopusId</text><rect fill="none" height="6" style="stroke:#C82930;stroke-width:1.0;" width="6" x="1233" y="226.2656"/><text fill="#000000" font-family="sans-serif" font-size="11" lengthAdjust="spacing" textLength="71" x="1245" y="232.4761">Integer oldId</text><line style="stroke:#A80036;stroke-width:1.5;" x1="1226" x2="1526" y1="239.0703" y2="239.0703"/><!--MD5=[ac13618b1a974308c1f12eb6c57723dc]
class Event--><rect codeLine="361" fill="#FEFECE" filter="url(#f1e72khytizm6m)" height="188.8516" id="Event" style="stroke:#A80036;stroke-width:1.5;" width="279" x="1236.5" y="332.5"/><ellipse cx="1354.25" cy="348.5" fill="#ADD1B2" rx="11" ry="11" style="stroke:#A80036;stroke-width:1.0;"/><path d="M1357.2188,354.1406 Q1356.6406,354.4375 1356,354.5781 Q1355.3594,354.7344 1354.6563,354.7344 Q1352.1563,354.7344 1350.8281,353.0938 Q1349.5156,351.4375 1349.5156,348.3125 Q1349.5156,345.1875 1350.8281,343.5313 Q1352.1563,341.875 1354.6563,341.875 Q1355.3594,341.875 1356,342.0313 Q1356.6563,342.1875 1357.2188,342.4844 L1357.2188,345.2031 Q1356.5938,344.625 1356,344.3594 Q1355.4063,344.0781 1354.7813,344.0781 Q1353.4375,344.0781 1352.75,345.1563 Q1352.0625,346.2188 1352.0625,348.3125 Q1352.0625,350.4063 1352.75,351.4844 Q1353.4375,352.5469 1354.7813,352.5469 Q1355.4063,352.5469 1356,352.2813 Q1356.5938,352 1357.2188,351.4219 L1357.2188,354.1406 Z " fill="#000000"/><text fill="#000000" font-family="sans-serif" font-size="12" lengthAdjust="spacing" textLength="35" x="1374.75" y="352.6543">Event</text><line style="stroke:#A80036;stroke-width:1.5;" x1="1237.5" x2="1514.5" y1="364.5" y2="364.5"/><rect fill="none" height="6" style="stroke:#C82930;stroke-width:1.0;" width="6" x="1244.5" y="372.5"/><text fill="#000000" font-family="sans-serif" font-size="11" lengthAdjust="spacing" textLength="183" x="1256.5" y="378.7104">Set&lt;MultiLingualContent&gt; name</text><rect fill="none" height="6" style="stroke:#C82930;stroke-width:1.0;" width="6" x="1244.5" y="385.3047"/><text fill="#000000" font-family="sans-serif" font-size="11" lengthAdjust="spacing" textLength="253" x="1256.5" y="391.5151">Set&lt;MultiLingualContent&gt; nameAbbreviation</text><rect fill="none" height="6" style="stroke:#C82930;stroke-width:1.0;" width="6" x="1244.5" y="398.1094"/><text fill="#000000" font-family="sans-serif" font-size="11" lengthAdjust="spacing" textLength="214" x="1256.5" y="404.3198">Set&lt;MultiLingualContent&gt; description</text><rect fill="none" height="6" style="stroke:#C82930;stroke-width:1.0;" width="6" x="1244.5" y="410.9141"/><text fill="#000000" font-family="sans-serif" font-size="11" lengthAdjust="spacing" textLength="205" x="1256.5" y="417.1245">Set&lt;MultiLingualContent&gt; keywords</text><rect fill="none" height="6" style="stroke:#C82930;stroke-width:1.0;" width="6" x="1244.5" y="423.7188"/><text fill="#000000" font-family="sans-serif" font-size="11" lengthAdjust="spacing" textLength="113" x="1256.5" y="429.9292">Boolean serialEvent</text><rect fill="none" height="6" style="stroke:#C82930;stroke-width:1.0;" width="6" x="1244.5" y="436.5234"/><text fill="#000000" font-family="sans-serif" font-size="11" lengthAdjust="spacing" textLength="113" x="1256.5" y="442.7339">LocalDate dateFrom</text><rect fill="none" height="6" style="stroke:#C82930;stroke-width:1.0;" width="6" x="1244.5" y="449.3281"/><text fill="#000000" font-family="sans-serif" font-size="11" lengthAdjust="spacing" textLength="98" x="1256.5" y="455.5386">LocalDate dateTo</text><rect fill="none" height="6" style="stroke:#C82930;stroke-width:1.0;" width="6" x="1244.5" y="462.1328"/><text fill="#000000" font-family="sans-serif" font-size="11" lengthAdjust="spacing" textLength="180" x="1256.5" y="468.3433">Set&lt;MultiLingualContent&gt; state</text><rect fill="none" height="6" style="stroke:#C82930;stroke-width:1.0;" width="6" x="1244.5" y="474.9375"/><text fill="#000000" font-family="sans-serif" font-size="11" lengthAdjust="spacing" textLength="181" x="1256.5" y="481.1479">Set&lt;MultiLingualContent&gt; place</text><rect fill="none" height="6" style="stroke:#C82930;stroke-width:1.0;" width="6" x="1244.5" y="487.7422"/><text fill="#000000" font-family="sans-serif" font-size="11" lengthAdjust="spacing" textLength="250" x="1256.5" y="493.9526">Set&lt;PersonEventContribution&gt; contributors</text><rect fill="none" height="6" style="stroke:#C82930;stroke-width:1.0;" width="6" x="1244.5" y="500.5469"/><text fill="#000000" font-family="sans-serif" font-size="11" lengthAdjust="spacing" textLength="71" x="1256.5" y="506.7573">Integer oldId</text><line style="stroke:#A80036;stroke-width:1.5;" x1="1237.5" x2="1514.5" y1="513.3516" y2="513.3516"/><!--MD5=[a8629a4ee64780b1db10893afabddcba]
class PersonDocumentContribution--><rect codeLine="288" fill="#FEFECE" filter="url(#f1e72khytizm6m)" height="86.4141" id="PersonDocumentContribution" style="stroke:#A80036;stroke-width:1.5;" width="277" x="924.5" y="384"/><ellipse cx="966.5" cy="400" fill="#ADD1B2" rx="11" ry="11" style="stroke:#A80036;stroke-width:1.0;"/><path d="M969.4688,405.6406 Q968.8906,405.9375 968.25,406.0781 Q967.6094,406.2344 966.9063,406.2344 Q964.4063,406.2344 963.0781,404.5938 Q961.7656,402.9375 961.7656,399.8125 Q961.7656,396.6875 963.0781,395.0313 Q964.4063,393.375 966.9063,393.375 Q967.6094,393.375 968.25,393.5313 Q968.9063,393.6875 969.4688,393.9844 L969.4688,396.7031 Q968.8438,396.125 968.25,395.8594 Q967.6563,395.5781 967.0313,395.5781 Q965.6875,395.5781 965,396.6563 Q964.3125,397.7188 964.3125,399.8125 Q964.3125,401.9063 965,402.9844 Q965.6875,404.0469 967.0313,404.0469 Q967.6563,404.0469 968.25,403.7813 Q968.8438,403.5 969.4688,402.9219 L969.4688,405.6406 Z " fill="#000000"/><text fill="#000000" font-family="sans-serif" font-size="12" lengthAdjust="spacing" textLength="185" x="986.5" y="404.1543">PersonDocumentContribution</text><line style="stroke:#A80036;stroke-width:1.5;" x1="925.5" x2="1200.5" y1="416" y2="416"/><rect fill="none" height="6" style="stroke:#C82930;stroke-width:1.0;" width="6" x="932.5" y="424"/><text fill="#000000" font-family="sans-serif" font-size="11" lengthAdjust="spacing" textLength="251" x="944.5" y="430.2104">DocumentContributionType contributionType</text><rect fill="none" height="6" style="stroke:#C82930;stroke-width:1.0;" width="6" x="932.5" y="436.8047"/><text fill="#000000" font-family="sans-serif" font-size="11" lengthAdjust="spacing" textLength="141" x="944.5" y="443.0151">boolean mainContributor</text><rect fill="none" height="6" style="stroke:#C82930;stroke-width:1.0;" width="6" x="932.5" y="449.6094"/><text fill="#000000" font-family="sans-serif" font-size="11" lengthAdjust="spacing" textLength="195" x="944.5" y="455.8198">boolean correspondingContributor</text><line style="stroke:#A80036;stroke-width:1.5;" x1="925.5" x2="1200.5" y1="462.4141" y2="462.4141"/><!--MD5=[077feb261d5045b0f4bde0f21e93d5af]
class JournalPublication--><rect codeLine="421" fill="#FEFECE" filter="url(#f1e72khytizm6m)" height="124.8281" id="JournalPublication" style="stroke:#A80036;stroke-width:1.5;" width="162" x="1551" y="364.5"/><ellipse cx="1574.1" cy="380.5" fill="#ADD1B2" rx="11" ry="11" style="stroke:#A80036;stroke-width:1.0;"/><path d="M1577.0688,386.1406 Q1576.4906,386.4375 1575.85,386.5781 Q1575.2094,386.7344 1574.5063,386.7344 Q1572.0063,386.7344 1570.6781,385.0938 Q1569.3656,383.4375 1569.3656,380.3125 Q1569.3656,377.1875 1570.6781,375.5313 Q1572.0063,373.875 1574.5063,373.875 Q1575.2094,373.875 1575.85,374.0313 Q1576.5063,374.1875 1577.0688,374.4844 L1577.0688,377.2031 Q1576.4438,376.625 1575.85,376.3594 Q1575.2563,376.0781 1574.6313,376.0781 Q1573.2875,376.0781 1572.6,377.1563 Q1571.9125,378.2188 1571.9125,380.3125 Q1571.9125,382.4063 1572.6,383.4844 Q1573.2875,384.5469 1574.6313,384.5469 Q1575.2563,384.5469 1575.85,384.2813 Q1576.4438,384 1577.0688,383.4219 L1577.0688,386.1406 Z " fill="#000000"/><text fill="#000000" font-family="sans-serif" font-size="12" lengthAdjust="spacing" textLength="112" x="1589.9" y="384.6543">JournalPublication</text><line style="stroke:#A80036;stroke-width:1.5;" x1="1552" x2="1712" y1="396.5" y2="396.5"/><rect fill="none" height="6" style="stroke:#C82930;stroke-width:1.0;" width="6" x="1559" y="404.5"/><text fill="#000000" font-family="sans-serif" font-size="11" lengthAdjust="spacing" textLength="97" x="1571" y="410.7104">String startPage;</text><rect fill="none" height="6" style="stroke:#C82930;stroke-width:1.0;" width="6" x="1559" y="417.3047"/><text fill="#000000" font-family="sans-serif" font-size="11" lengthAdjust="spacing" textLength="91" x="1571" y="423.5151">String endPage;</text><rect fill="none" height="6" style="stroke:#C82930;stroke-width:1.0;" width="6" x="1559" y="430.1094"/><text fill="#000000" font-family="sans-serif" font-size="11" lengthAdjust="spacing" textLength="136" x="1571" y="436.3198">Integer numberOfPages</text><rect fill="none" height="6" style="stroke:#C82930;stroke-width:1.0;" width="6" x="1559" y="442.9141"/><text fill="#000000" font-family="sans-serif" font-size="11" lengthAdjust="spacing" textLength="118" x="1571" y="449.1245">String articleNumber</text><rect fill="none" height="6" style="stroke:#C82930;stroke-width:1.0;" width="6" x="1559" y="455.7188"/><text fill="#000000" font-family="sans-serif" font-size="11" lengthAdjust="spacing" textLength="79" x="1571" y="461.9292">String volume</text><rect fill="none" height="6" style="stroke:#C82930;stroke-width:1.0;" width="6" x="1559" y="468.5234"/><text fill="#000000" font-family="sans-serif" font-size="11" lengthAdjust="spacing" textLength="69" x="1571" y="474.7339">String issue</text><line style="stroke:#A80036;stroke-width:1.5;" x1="1552" x2="1712" y1="481.3281" y2="481.3281"/><!--MD5=[f966dd9013cc04994824b91e9eb709ff]
class DocumentContributionType--><rect codeLine="248" fill="#FEFECE" filter="url(#f1e72khytizm6m)" height="99.2188" id="DocumentContributionType" style="stroke:#A80036;stroke-width:1.5;" width="202" x="277" y="77.5"/><ellipse cx="292" cy="93.5" fill="#EB937F" rx="11" ry="11" style="stroke:#A80036;stroke-width:1.0;"/><path d="M296.1094,99.5 L288.3906,99.5 L288.3906,87.1094 L296.1094,87.1094 L296.1094,89.2656 L290.8438,89.2656 L290.8438,91.9375 L295.6094,91.9375 L295.6094,94.0938 L290.8438,94.0938 L290.8438,97.3438 L296.1094,97.3438 L296.1094,99.5 Z " fill="#000000"/><text fill="#000000" font-family="sans-serif" font-size="12" lengthAdjust="spacing" textLength="170" x="306" y="97.6543">DocumentContributionType</text><line style="stroke:#A80036;stroke-width:1.5;" x1="278" x2="478" y1="109.5" y2="109.5"/><text fill="#000000" font-family="sans-serif" font-size="11" lengthAdjust="spacing" textLength="46" x="283" y="123.7104">AUTHOR</text><text fill="#000000" font-family="sans-serif" font-size="11" lengthAdjust="spacing" textLength="41" x="283" y="136.5151">EDITOR</text><text fill="#000000" font-family="sans-serif" font-size="11" lengthAdjust="spacing" textLength="54" x="283" y="149.3198">REVIEWER</text><text fill="#000000" font-family="sans-serif" font-size="11" lengthAdjust="spacing" textLength="49" x="283" y="162.1245">ADVISOR</text><line style="stroke:#A80036;stroke-width:1.5;" x1="278" x2="478" y1="168.7188" y2="168.7188"/><!--MD5=[fbf67780fb5d0d02d7f1dbe96dbc72a0]
class PersonContribution--><rect codeLine="264" fill="#FEFECE" filter="url(#f1e72khytizm6m)" height="124.8281" id="PersonContribution" style="stroke:#A80036;stroke-width:1.5;" width="308" x="601" y="64.5"/><ellipse cx="690.25" cy="80.5" fill="#ADD1B2" rx="11" ry="11" style="stroke:#A80036;stroke-width:1.0;"/><path d="M693.2188,86.1406 Q692.6406,86.4375 692,86.5781 Q691.3594,86.7344 690.6563,86.7344 Q688.1563,86.7344 686.8281,85.0938 Q685.5156,83.4375 685.5156,80.3125 Q685.5156,77.1875 686.8281,75.5313 Q688.1563,73.875 690.6563,73.875 Q691.3594,73.875 692,74.0313 Q692.6563,74.1875 693.2188,74.4844 L693.2188,77.2031 Q692.5938,76.625 692,76.3594 Q691.4063,76.0781 690.7813,76.0781 Q689.4375,76.0781 688.75,77.1563 Q688.0625,78.2188 688.0625,80.3125 Q688.0625,82.4063 688.75,83.4844 Q689.4375,84.5469 690.7813,84.5469 Q691.4063,84.5469 692,84.2813 Q692.5938,84 693.2188,83.4219 L693.2188,86.1406 Z " fill="#000000"/><text fill="#000000" font-family="sans-serif" font-size="12" lengthAdjust="spacing" textLength="121" x="710.75" y="84.6543">PersonContribution</text><line style="stroke:#A80036;stroke-width:1.5;" x1="602" x2="908" y1="96.5" y2="96.5"/><rect fill="none" height="6" style="stroke:#C82930;stroke-width:1.0;" width="6" x="609" y="104.5"/><text fill="#000000" font-family="sans-serif" font-size="11" lengthAdjust="spacing" textLength="84" x="621" y="110.7104">Person person</text><rect fill="none" height="6" style="stroke:#C82930;stroke-width:1.0;" width="6" x="609" y="117.3047"/><text fill="#000000" font-family="sans-serif" font-size="11" lengthAdjust="spacing" textLength="282" x="621" y="123.5151">Set&lt;MultiLingualContent&gt; contributionDescription</text><rect fill="none" height="6" style="stroke:#C82930;stroke-width:1.0;" width="6" x="609" y="130.1094"/><text fill="#000000" font-family="sans-serif" font-size="11" lengthAdjust="spacing" textLength="226" x="621" y="136.3198">AffiliationStatement affiliationStatement</text><rect fill="none" height="6" style="stroke:#C82930;stroke-width:1.0;" width="6" x="609" y="142.9141"/><text fill="#000000" font-family="sans-serif" font-size="11" lengthAdjust="spacing" textLength="199" x="621" y="149.1245">Set&lt;OrganisationUnit&gt; institutions</text><rect fill="none" height="6" style="stroke:#C82930;stroke-width:1.0;" width="6" x="609" y="155.7188"/><text fill="#000000" font-family="sans-serif" font-size="11" lengthAdjust="spacing" textLength="120" x="621" y="161.9292">Integer orderNumber</text><rect fill="none" height="6" style="stroke:#C82930;stroke-width:1.0;" width="6" x="609" y="168.5234"/><text fill="#000000" font-family="sans-serif" font-size="11" lengthAdjust="spacing" textLength="170" x="621" y="174.7339">ApproveStatus approveStatus</text><line style="stroke:#A80036;stroke-width:1.5;" x1="602" x2="908" y1="181.3281" y2="181.3281"/><!--MD5=[09ce52be0ee7de43c61b6e2d59bf108b]
class Person--><rect codeLine="95" fill="#FEFECE" filter="url(#f1e72khytizm6m)" height="240.0703" id="Person" style="stroke:#A80036;stroke-width:1.5;" width="268" x="621" y="307"/><ellipse cx="728.75" cy="323" fill="#ADD1B2" rx="11" ry="11" style="stroke:#A80036;stroke-width:1.0;"/><path d="M731.7188,328.6406 Q731.1406,328.9375 730.5,329.0781 Q729.8594,329.2344 729.1563,329.2344 Q726.6563,329.2344 725.3281,327.5938 Q724.0156,325.9375 724.0156,322.8125 Q724.0156,319.6875 725.3281,318.0313 Q726.6563,316.375 729.1563,316.375 Q729.8594,316.375 730.5,316.5313 Q731.1563,316.6875 731.7188,316.9844 L731.7188,319.7031 Q731.0938,319.125 730.5,318.8594 Q729.9063,318.5781 729.2813,318.5781 Q727.9375,318.5781 727.25,319.6563 Q726.5625,320.7188 726.5625,322.8125 Q726.5625,324.9063 727.25,325.9844 Q727.9375,327.0469 729.2813,327.0469 Q729.9063,327.0469 730.5,326.7813 Q731.0938,326.5 731.7188,325.9219 L731.7188,328.6406 Z " fill="#000000"/><text fill="#000000" font-family="sans-serif" font-size="12" lengthAdjust="spacing" textLength="44" x="749.25" y="327.1543">Person</text><line style="stroke:#A80036;stroke-width:1.5;" x1="622" x2="888" y1="339" y2="339"/><rect fill="none" height="6" style="stroke:#C82930;stroke-width:1.0;" width="6" x="629" y="347"/><text fill="#000000" font-family="sans-serif" font-size="11" lengthAdjust="spacing" textLength="109" x="641" y="353.2104">PersonName name</text><rect fill="none" height="6" style="stroke:#C82930;stroke-width:1.0;" width="6" x="629" y="359.8047"/><text fill="#000000" font-family="sans-serif" font-size="11" lengthAdjust="spacing" textLength="184" x="641" y="366.0151">Set&lt;PersonName&gt; otherNames</text><rect fill="none" height="6" style="stroke:#C82930;stroke-width:1.0;" width="6" x="629" y="372.6094"/><text fill="#000000" font-family="sans-serif" font-size="11" lengthAdjust="spacing" textLength="184" x="641" y="378.8198">Set&lt;Involvement&gt; involvements</text><rect fill="none" height="6" style="stroke:#C82930;stroke-width:1.0;" width="6" x="629" y="385.4141"/><text fill="#000000" font-family="sans-serif" font-size="11" lengthAdjust="spacing" textLength="242" x="641" y="391.6245">Set&lt;ExpertiseOrSkill&gt; expertisesAndSkills</text><rect fill="none" height="6" style="stroke:#C82930;stroke-width:1.0;" width="6" x="629" y="398.2188"/><text fill="#000000" font-family="sans-serif" font-size="11" lengthAdjust="spacing" textLength="102" x="641" y="404.4292">Set&lt;Prize&gt; prizes</text><rect fill="none" height="6" style="stroke:#C82930;stroke-width:1.0;" width="6" x="629" y="411.0234"/><text fill="#000000" font-family="sans-serif" font-size="11" lengthAdjust="spacing" textLength="207" x="641" y="417.2339">Set&lt;MultiLingualContent&gt; biography</text><rect fill="none" height="6" style="stroke:#C82930;stroke-width:1.0;" width="6" x="629" y="423.8281"/><text fill="#000000" font-family="sans-serif" font-size="11" lengthAdjust="spacing" textLength="198" x="641" y="430.0386">Set&lt;MultiLingualContent&gt; keyword</text><rect fill="none" height="6" style="stroke:#C82930;stroke-width:1.0;" width="6" x="629" y="436.6328"/><text fill="#000000" font-family="sans-serif" font-size="11" lengthAdjust="spacing" textLength="69" x="641" y="442.8433">String apvnt</text><rect fill="none" height="6" style="stroke:#C82930;stroke-width:1.0;" width="6" x="629" y="449.4375"/><text fill="#000000" font-family="sans-serif" font-size="11" lengthAdjust="spacing" textLength="66" x="641" y="455.6479">String mnid</text><rect fill="none" height="6" style="stroke:#C82930;stroke-width:1.0;" width="6" x="629" y="462.2422"/><text fill="#000000" font-family="sans-serif" font-size="11" lengthAdjust="spacing" textLength="66" x="641" y="468.4526">String orcid</text><rect fill="none" height="6" style="stroke:#C82930;stroke-width:1.0;" width="6" x="629" y="475.0469"/><text fill="#000000" font-family="sans-serif" font-size="11" lengthAdjust="spacing" textLength="126" x="641" y="481.2573">String scopusAuthorId</text><rect fill="none" height="6" style="stroke:#C82930;stroke-width:1.0;" width="6" x="629" y="487.8516"/><text fill="#000000" font-family="sans-serif" font-size="11" lengthAdjust="spacing" textLength="71" x="641" y="494.062">Integer oldId</text><rect fill="none" height="6" style="stroke:#C82930;stroke-width:1.0;" width="6" x="629" y="500.6563"/><text fill="#000000" font-family="sans-serif" font-size="11" lengthAdjust="spacing" textLength="204" x="641" y="506.8667">Set&lt;ResearchArea&gt; researchAreas</text><rect fill="none" height="6" style="stroke:#C82930;stroke-width:1.0;" width="6" x="629" y="513.4609"/><text fill="#000000" font-family="sans-serif" font-size="11" lengthAdjust="spacing" textLength="170" x="641" y="519.6714">ApproveStatus approveStatus</text><line style="stroke:#A80036;stroke-width:1.5;" x1="622" x2="888" y1="526.2656" y2="526.2656"/><ellipse cx="632" cy="537.2656" fill="#84BE84" rx="3" ry="3" style="stroke:#038048;stroke-width:1.0;"/><text fill="#000000" font-family="sans-serif" font-size="11" lengthAdjust="spacing" textLength="78" x="641" y="540.4761">String name()</text><!--MD5=[b793bcee6c3bcc18e51e7a40726c5e79]
class AffiliationStatement--><rect codeLine="279" fill="#FEFECE" filter="url(#f1e72khytizm6m)" height="99.2188" id="AffiliationStatement" style="stroke:#A80036;stroke-width:1.5;" width="314" x="7" y="377.5"/><ellipse cx="98.25" cy="393.5" fill="#ADD1B2" rx="11" ry="11" style="stroke:#A80036;stroke-width:1.0;"/><path d="M101.2188,399.1406 Q100.6406,399.4375 100,399.5781 Q99.3594,399.7344 98.6563,399.7344 Q96.1563,399.7344 94.8281,398.0938 Q93.5156,396.4375 93.5156,393.3125 Q93.5156,390.1875 94.8281,388.5313 Q96.1563,386.875 98.6563,386.875 Q99.3594,386.875 100,387.0313 Q100.6563,387.1875 101.2188,387.4844 L101.2188,390.2031 Q100.5938,389.625 100,389.3594 Q99.4063,389.0781 98.7813,389.0781 Q97.4375,389.0781 96.75,390.1563 Q96.0625,391.2188 96.0625,393.3125 Q96.0625,395.4063 96.75,396.4844 Q97.4375,397.5469 98.7813,397.5469 Q99.4063,397.5469 100,397.2813 Q100.5938,397 101.2188,396.4219 L101.2188,399.1406 Z " fill="#000000"/><text fill="#000000" font-family="sans-serif" font-size="12" lengthAdjust="spacing" textLength="123" x="118.75" y="397.6543">AffiliationStatement</text><line style="stroke:#A80036;stroke-width:1.5;" x1="8" x2="320" y1="409.5" y2="409.5"/><text fill="#000000" font-family="sans-serif" font-size="11" lengthAdjust="spacing" textLength="302" x="13" y="423.7104">Set&lt;MultiLingualContent&gt; displayAffiliationStatement</text><text fill="#000000" font-family="sans-serif" font-size="11" lengthAdjust="spacing" textLength="190" x="13" y="436.5151">PersonName displayPersonName</text><text fill="#000000" font-family="sans-serif" font-size="11" lengthAdjust="spacing" textLength="133" x="13" y="449.3198">PostalAddress address</text><text fill="#000000" font-family="sans-serif" font-size="11" lengthAdjust="spacing" textLength="88" x="13" y="462.1245">Contact contact</text><line style="stroke:#A80036;stroke-width:1.5;" x1="8" x2="320" y1="468.7188" y2="468.7188"/><!--MD5=[0ffef9d20d81b68e9f16ca2407856ea5]
link Document to Event--><path codeLine="414" d="M1376,247.06 C1376,273.66 1376,301.58 1376,327.26 " fill="none" id="Document-to-Event" style="stroke:#A80036;stroke-width:1.0;"/><polygon fill="#A80036" points="1376,332.36,1380,323.36,1376,327.36,1372,323.36,1376,332.36" style="stroke:#A80036;stroke-width:1.0;"/><text fill="#000000" font-family="sans-serif" font-size="13" lengthAdjust="spacing" textLength="7" x="1368.7758" y="267.3007">*</text><text fill="#000000" font-family="sans-serif" font-size="13" lengthAdjust="spacing" textLength="24" x="1351.0438" y="321.2988">0..1</text><!--MD5=[e5d1958de036df2d6dcc599d52d2c22c]
link Document to PersonDocumentContribution--><path codeLine="415" d="M1250.94,247.06 C1201.99,293.68 1148.74,344.37 1111.47,379.85 " fill="none" id="Document-to-PersonDocumentContribution" style="stroke:#A80036;stroke-width:1.0;"/><polygon fill="#A80036" points="1107.46,383.67,1116.7287,380.3396,1111.0732,380.2139,1111.1989,374.5584,1107.46,383.67" style="stroke:#A80036;stroke-width:1.0;"/><text fill="#000000" font-family="sans-serif" font-size="13" lengthAdjust="spacing" textLength="7" x="1235.7041" y="267.3007">*</text><text fill="#000000" font-family="sans-serif" font-size="13" lengthAdjust="spacing" textLength="23" x="1089.507" y="372.932">1..*</text><!--MD5=[fe84eb323f7935cd03012b34ba00437e]
reverse link Document to JournalPublication--><path d="M1494.67,262.54 C1507.66,277.49 1520.65,292.54 1533,307 C1548.8,325.49 1565.8,345.78 1581.18,364.29 " fill="none" id="Document-backto-JournalPublication" style="stroke:#A80036;stroke-width:1.0;"/><polygon fill="none" points="1489.01,266.7,1481.16,247.02,1499.57,257.5,1489.01,266.7" style="stroke:#A80036;stroke-width:1.0;"/><!--MD5=[93557d900094736807324612f1d7a0fd]
link PersonContribution to OrganisationUnit--><path codeLine="274" d="M696.16,189.75 C652.37,235.69 592.31,298.72 545.22,348.12 " fill="none" id="PersonContribution-to-OrganisationUnit" style="stroke:#A80036;stroke-width:1.0;"/><polygon fill="#A80036" points="541.57,351.95,550.6742,348.1932,545.019,348.33,544.8822,342.6748,541.57,351.95" style="stroke:#A80036;stroke-width:1.0;"/><text fill="#000000" font-family="sans-serif" font-size="13" lengthAdjust="spacing" textLength="7" x="682.3416" y="209.5172">*</text><text fill="#000000" font-family="sans-serif" font-size="13" lengthAdjust="spacing" textLength="24" x="523.3355" y="340.8759">0..1</text><!--MD5=[9706fd32f02ece002fdf0285cdfa5724]
link PersonContribution to Person--><path codeLine="275" d="M755,189.75 C755,222.13 755,263.01 755,301.62 " fill="none" id="PersonContribution-to-Person" style="stroke:#A80036;stroke-width:1.0;"/><polygon fill="#A80036" points="755,306.81,759,297.81,755,301.81,751,297.81,755,306.81" style="stroke:#A80036;stroke-width:1.0;"/><text fill="#000000" font-family="sans-serif" font-size="13" lengthAdjust="spacing" textLength="7" x="747.6172" y="209.5172">*</text><text fill="#000000" font-family="sans-serif" font-size="13" lengthAdjust="spacing" textLength="8" x="746.7563" y="296.0977">1</text><!--MD5=[35659570f74802050a643179e0b53628]
reverse link PersonContribution to PersonDocumentContribution--><path d="M833.39,203.84 C892.49,261.03 971.35,337.33 1019.59,384 " fill="none" id="PersonContribution-backto-PersonDocumentContribution" style="stroke:#A80036;stroke-width:1.0;"/><polygon fill="none" points="828.32,208.68,818.82,189.75,838.06,198.62,828.32,208.68" style="stroke:#A80036;stroke-width:1.0;"/><!--MD5=[3972d0431b487b12db13473ca1419b44]
link MultiLingualContent to DocumentContributionType--><!--MD5=[e21749ab7a31a15763f2e5848d0ad230]
link MultiLingualContent to AffiliationStatement--><!--MD5=[e0b1554bd143591a16d2f4aa44aba88e]
@startuml journalPublication

    !includesub model.puml!Multilingual_Content
    !includesub model.puml!Organisation_Unit
    !includesub model.puml!Document
    !includesub model.puml!Journal_Publication
    !includesub model.puml!Person_Contribution
    !includesub model.puml!Person_Document_Contribution
    !includesub model.puml!Person
    !includesub model.puml!Event

@enduml

@startuml journalPublication

    class MultiLingualContent {
      LanguageTag language
      String content
      Integer priority
    }
    class OrganisationUnit {
      -Set<MultiLingualContent> name
      -String nameAbbreviation
      -Set<MultiLingualContent> keyword
      -Set<ResearchArea> researchAreas
      -GeoLocation location
      -ApproveStatus approveStatus
      -Integer oldId
      -String scopusAfid
    }
    class Document {
      -Set<MultiLingualContent> title
      -Set<MultiLingualContent> subTitle
      -Set<MultiLingualContent> description
      -Set<MultiLingualContent> note
      -Set<PersonDocumentContribution> contributors
      -Set<String> uris
      -String documentDate
      -Set<DocumentFile> fileItems
      -Set<DocumentFile> proof
      -Set<MultiLingualContent> keywords
      -ApproveStatus approveStatus
      -String note
      -String doi
      -String scopusId
      -Integer oldId
    }
    Document "*" - -> "0..1" Event
    Document "*" - -> "1..*" PersonDocumentContribution
    class JournalPublication extends Document {
      -String startPage;
      -String endPage;
      -Integer numberOfPages
      -String articleNumber
      -String volume
      -String issue
    }
    enum DocumentContributionType {
      AUTHOR
      EDITOR
      REVIEWER
      ADVISOR
    }
    class PersonContribution {
      -Person person
      -Set<MultiLingualContent> contributionDescription
      -AffiliationStatement affiliationStatement
      -Set<OrganisationUnit> institutions
      -Integer orderNumber
      -ApproveStatus approveStatus
    }

    PersonContribution "*" - -> "0..1" OrganisationUnit
    PersonContribution "*" - -> "1" Person
    class AffiliationStatement {
      Set<MultiLingualContent> displayAffiliationStatement
      PersonName displayPersonName
      PostalAddress address
      Contact contact
    }
    class PersonDocumentContribution extends PersonContribution {
      -DocumentContributionType contributionType
      -boolean mainContributor
      -boolean correspondingContributor
    }
  class Person {
    -PersonName name
    -Set<PersonName> otherNames
    +String name()
    -Set<Involvement> involvements
    -Set<ExpertiseOrSkill> expertisesAndSkills
    -Set<Prize> prizes
    -Set<MultiLingualContent> biography
    -Set<MultiLingualContent> keyword
    -String apvnt
    -String mnid
    -String orcid
    -String scopusAuthorId
    -Integer oldId
    -Set<ResearchArea> researchAreas
    -ApproveStatus approveStatus
  }
    class Event {
      -Set<MultiLingualContent> name
      -Set<MultiLingualContent> nameAbbreviation
      -Set<MultiLingualContent> description
      -Set<MultiLingualContent> keywords
      -Boolean serialEvent
      -LocalDate dateFrom
      -LocalDate dateTo
      -Set<MultiLingualContent> state
      -Set<MultiLingualContent> place
      -Set<PersonEventContribution> contributors
      -Integer oldId
    }

@enduml

PlantUML version 1.2021.8(Sat Jun 26 10:20:59 CEST 2021)
(GPL source distribution)
Java Runtime: OpenJDK Runtime Environment
JVM: OpenJDK 64-Bit Server VM
Default Encoding: UTF-8
Language: en
Country: US
--></g></svg>